<?xml version="1.0" encoding="utf-8"?>
<!-- Generator: Adobe Illustrator 16.0.0, SVG Export Plug-In . SVG Version: 6.00 Build 0)  -->
<!DOCTYPE svg PUBLIC "-//W3C//DTD SVG 1.1//EN" "http://www.w3.org/Graphics/SVG/1.1/DTD/svg11.dtd">
<svg version="1.1" id="Layer_1" xmlns="http://www.w3.org/2000/svg" xmlns:xlink="http://www.w3.org/1999/xlink" x="0px" y="0px"
	 width="261.5px" height="220px" viewBox="0 0 261.5 220" enable-background="new 0 0 261.5 220" xml:space="preserve">
<text transform="matrix(1 0 0 1 480 280)" font-family="'MyriadPro-Regular'" font-size="12">about-us-landing-page-design_23-2148123554.jpg</text>
<text transform="matrix(1 0 0 1 480 280)" font-family="'MyriadPro-Regular'" font-size="12">about-us-landing-page-design_23-2148123554.jpg</text>
<g>
	<g>
		<g>
			<path fill="#E1E2FF" d="M195.718,5.487c-18.569-7.015-40.977-2.469-55.343,11.229c-16.604,15.832-23.063,42.3-43.851,52.006
				c-15.476,7.225-33.872,2.506-50.536,6.248c-24.053,5.401-41.501,29.075-43.58,53.64c-1.595,18.857,4.811,37.621,15.402,53.06
				c9.896,14.423,27.667,22.399,44.032,27.123c24.211,6.988,51.44,9.163,76.573,9.14c18.636-0.019,37.379-1.43,55.608-5.438
				c15.099-3.318,30.927-7.298,43.322-17.025c5.805-4.555,12.369-11.335,14.735-18.512c2.955-8.964,1.884-20.315-0.532-29.257
				c-3.992-14.77-12.257-27.962-18.417-41.967c-3.91-8.892-3.89-17.497-5.083-26.947c-1.303-10.321-1.937-20.729-3.785-30.978
				c-1.652-9.155-4.388-18.295-9.119-26.358C210.14,12.922,204.725,8.89,195.718,5.487z"/>
		</g>
		<g>
			<path fill="#7970E5" d="M106.409,140.376c5.111,8.974,8.182,19.08,9.065,29.362c0.453,5.271,0.291,10.546-0.375,15.791
				c-0.38,2.986,1.374,8.844-3.419,8.944c-2.168,0.046-4.118-1.207-6.178-1.885c-4.607-1.516-9.588-0.115-14.408,0.423
				c-3.844,0.429-7.727,0.297-11.592,0.165c-4.838-0.165-9.719-0.336-14.414-1.512c-4.696-1.175-9.256-3.447-12.346-7.174
				c-2.152-2.595-3.536-6.106-2.648-9.359c0.473-1.73,1.544-3.243,2.784-4.539c1.827-1.911,4.063-3.431,6.512-4.428
				c3.638-1.48,8.364-2.405,9.499-6.165c0.946-3.134-1.318-6.208-2.982-9.027c-1.664-2.818-2.5-7.083,0.256-8.85
				c2.152-1.379,5.193-0.227,7.438-1.449c3.034-1.652,2.559-6.069,1.787-9.438c-0.96-4.187-1.715-8.419-2.26-12.679
				c-0.441-3.44-0.232-7.83,2.958-9.19c3.299-1.407,6.716,1.768,8.514,4.87c1.788,3.087,3.11,6.443,3.907,9.92
				c0.606,2.647,0.944,5.449,2.419,7.729c2.699,4.175,5.476,1.709,9.054,2.473C102.942,134.991,104.91,137.746,106.409,140.376z"/>
		</g>
		<g>
			<g>
				<path fill="#E1E2FF" d="M72.814,67.858c-9.406,1.044-18.928,0.224-28.324,1.568c-7.215,1.033-16.578,3.558-21.25,9.645
					c-0.265,0.345,0.244,0.818,0.588,0.587c3.333-2.241,6.299-4.516,10.057-6.065c3.5-1.443,7.236-2.278,10.965-2.866
					c9.232-1.455,18.682-1.121,27.965-2.204C73.234,68.475,73.242,67.811,72.814,67.858L72.814,67.858z"/>
			</g>
		</g>
		<g>
			<g>
				<path fill="#5D5AE0" d="M111.62,194.763c-0.381-1.025-8.303-2.83-9.604-3.319c-3.17-1.194-6.307-2.476-9.406-3.841
					c-5.527-2.436-12.038-4.595-16.812-8.274c-0.859-0.662-1.76-1.513-1.759-2.598c0-1.027,0.873-1.901,1.859-2.192
					c0.985-0.292,2.048-0.114,3.036,0.168c0.374,0.107,0.779,0.228,1.141,0.082c0.533-0.216,0.693-0.944,0.475-1.477
					c-0.219-0.531-0.702-0.902-1.176-1.229c-3.733-2.567-8.162-3.924-12.094-6.177c-3.498-2.005-7.383-5.55-8.095-9.768
					c-0.688-4.079,3.418-6.826,3.742-10.888c0.25-3.12-1.646-5.943-3.146-8.69c-1.5-2.748-2.635-6.238-0.968-8.888
					c2.024-3.219,7.087-3.011,10.099-0.689c3.012,2.32,4.578,5.991,6.355,9.353c1.417,2.68,3.752,6.88,6.198,8.74
					c1.302,0.989,3.226,1.358,4.567,0.424c0.845-0.589,1.316-1.57,2.02-2.324c2.586-2.771,7.649-1.415,9.694,1.775
					s1.799,7.328,0.957,11.023c-0.363,1.597-0.827,3.242-0.494,4.846c0.332,1.604,1.789,3.12,3.405,2.857
					c1.007-0.163,1.848-0.963,2.866-1.022c1.209-0.071,2.253,0.967,2.624,2.119s0.233,2.397,0.13,3.604
					C106.428,177.832,108.381,186.035,111.62,194.763z"/>
			</g>
			<path opacity="0.382" fill="#7970E5" d="M63.582,130.886c2.976,9.326,7.086,18.152,12.394,26.342
				c0.064,0.338,0.132,0.673,0.196,1.013c0.056,0.297,0.435,0.364,0.622,0.202c0.297,0.444,0.591,0.889,0.895,1.329
				c-4.563-3.244-9.126-6.212-12.908-10.501c-0.231-0.263-0.642,0.086-0.414,0.352c3.998,4.658,8.664,9.457,14.46,11.819
				c0.01,0.004,0.016-0.004,0.025,0c6.235,8.726,13.94,17.456,22.975,23.276c0.387,0.25,0.94-0.295,0.568-0.633
				c-4.147-3.766-8.217-7.46-12.074-11.358c0.096-7.826-1.837-16.166-5.207-23.211c-0.092-0.19-0.431-0.096-0.363,0.119
				c2.297,7.398,3.767,14.62,4.766,22.257c-3.476-3.57-6.776-7.316-9.779-11.467c-1.016-1.404-1.99-2.84-2.943-4.289
				c-0.489-6.426-2.984-12.765-6.15-18.268c-0.131-0.228-0.489-0.064-0.372,0.177c2.478,5.102,3.881,10.335,5.017,15.75
				c-4.531-7.266-8.28-15.04-11.11-23.104C64.06,130.357,63.474,130.545,63.582,130.886z"/>
		</g>
		<path fill="#463360" d="M166.853,127.482c1.854-1.582,3.563-3.318,4.903-5.346c1.56-2.357,2.553-5.072,2.953-7.866
			c0.313-2.186,0.648-5.848-0.555-7.817c-0.543-0.89-1.337-1.591-2.058-2.344c-1.186-1.239-2.222-2.716-2.498-4.408
			c-0.292-1.782,0.282-3.574,0.701-5.332c0.694-2.91,0.973-5.952,0.478-8.902c-0.494-2.951-1.798-5.81-3.942-7.896
			c-1.073-1.044-2.331-1.876-3.498-2.813c-3.467-2.784-6.088-6.495-7.896-10.535c-0.913-2.038-1.628-4.167-2.15-6.338
			c-0.175-0.725-0.173-1.73-0.584-2.358c-0.542-0.83-1.767-1.494-2.485-2.198c-1.932-1.895-3.494-4.126-5.044-6.345
			c-2.827-4.045-5.56-8.179-8.491-12.148c-1.479-2.002-1.274-3.615-4.041-4.058c-3.729-0.597-7.869-0.701-11.525,0.41
			c-6.346,1.928-12.24,5.522-16.532,10.578c-3.014,3.55-5.202,7.825-6.22,12.374c-0.97,4.337-1.822,8.881-2.387,13.304
			c-0.611,1.587-1.474,3.005-2.929,3.83c-2.698,1.531-6.359,0.365-8.992,2.006c-3.955,2.466-2.804,9.091-3.302,12.989
			c-0.261,2.033-0.685,4.349-2.527,5.564c-2.771,1.829-6.731,0.02-9.799,0.926c-7.174,2.122-6.055,12.602-2.784,17.455
			c2.161,3.206,5.241,4.908,8.924,5.835c4.212,1.061,7.644,3.938,8.456,8.35c0.521,2.829,0.143,5.734,0.006,8.607
			c-0.195,4.109,0.465,7.354,3.181,10.476c5.838,6.711,15.198,9.723,24.073,9.132c3.429-0.229,6.906-0.979,9.79-2.848
			c2.056-1.332,3.722-3.172,5.429-4.929c2.887-2.97,6.07-5.828,9.965-7.234c3.959-1.43,8.255-1.251,12.282-2.38
			c2.144-0.601,3.169-1.108,5.392-1.091c1.962,0.016,3.91-0.353,5.712-1.138c1.741-0.759,3.304-1.869,4.826-3.006
			C164.759,129.184,165.828,128.357,166.853,127.482z"/>
		<path opacity="0.3417" fill="#523D6B" d="M108.482,152.68c-8.319,0.101-16.829-2.938-22.267-9.193
			c-2.713-3.129-3.374-6.368-3.184-10.483c0.134-2.87,0.516-5.774,0-8.61c-0.818-4.406-4.25-7.288-8.465-8.342
			c-3.678-0.931-6.761-2.635-8.925-5.841c-3.263-4.844-4.384-15.327,2.792-17.457c3.061-0.897,7.029,0.908,9.799-0.919
			c1.839-1.222,2.265-3.532,2.522-5.561c0.505-3.902-0.65-10.528,3.308-12.995c2.273-1.427,5.412-0.963,7.951-1.513
			c-0.254,1.098-2.329,1.511-3.252,2.083c-1.232,0.765-2.354,1.762-2.895,3.142c-0.344,0.878-0.423,1.833-0.487,2.774
			c-0.184,2.658-0.466,5.382,0.019,7.986c0.4,2.147,0.766,5.06-0.624,6.927c-1.407,1.894-4.157,2.172-5.968,3.685
			c-2.533,2.116-2.567,6.036-1.613,9.196c0.827,2.74,2.229,5.334,4.226,7.4c1.967,2.035,3.174,4.322,5.748,5.797
			c1.787,1.024,3.733,1.872,5.155,3.363c0.854,0.896,1.48,1.99,1.967,3.129c1.133,2.65,1.538,5.547,1.869,8.41
			c0.213,1.841,0.404,3.704,1.035,5.446c0.701,1.937,1.874,3.932,3.227,5.488C102.664,149.17,105.422,151.201,108.482,152.68z"/>
		<path opacity="0.3417" fill="#523D6B" d="M174.711,114.269c-0.404,2.791-1.391,5.505-2.949,7.87
			c-1.346,2.029-3.05,3.756-4.911,5.349c-1.02,0.874-2.097,1.692-3.173,2.5c-0.325,0.246-0.649,0.481-0.986,0.729
			c1.144-2.052,1.884-4.328,2.22-6.648c0.314-2.187,0.65-5.853-0.549-7.826c-0.55-0.886-1.346-1.581-2.063-2.343
			c-1.188-1.233-2.22-2.714-2.5-4.406c-0.291-1.783,0.292-3.577,0.706-5.326c0.695-2.915,0.976-5.953,0.482-8.901
			c-0.505-2.949-1.805-5.808-3.946-7.905c-1.076-1.042-2.332-1.873-3.498-2.803c-3.465-2.792-6.088-6.503-7.894-10.539
			c-0.919-2.041-1.637-4.171-2.152-6.335c-0.18-0.729-0.18-1.738-0.583-2.366c-0.55-0.83-1.771-1.491-2.489-2.197
			c-1.929-1.895-3.498-4.126-5.045-6.346c-2.825-4.036-5.562-8.173-8.487-12.142c-1.47-1.994-3.216-4.035-2.041-6.496
			c1.419-2.972,4.489-5.086,7.771-5.352c3.593-0.291,4.31,2.35,6.079,4.844c2.195,3.094,4.305,6.248,6.477,9.358
			c1.547,2.22,3.105,4.451,5.045,6.346c0.718,0.695,1.94,1.368,2.479,2.198c0.414,0.628,0.414,1.625,0.583,2.354
			c0.526,2.175,1.244,4.305,2.152,6.334c1.816,4.047,4.429,7.759,7.904,10.539c1.166,0.931,2.422,1.771,3.498,2.814
			c2.142,2.085,3.442,4.945,3.936,7.894s0.224,5.998-0.471,8.902c-0.427,1.761-0.998,3.554-0.707,5.337
			c0.28,1.693,1.313,3.162,2.5,4.406c0.718,0.751,1.514,1.457,2.053,2.343C175.36,108.427,175.024,112.083,174.711,114.269z"/>
		<g>
			<g>
				<path fill="#FCD6B1" d="M131.063,115.793c-6.223-1.278-8.286-9.698-8.902-14.956c-0.303-2.557-0.64-5.113-0.942-7.681
					c-0.426-3.599-0.796-7.209-1.009-10.831c-0.246-4.26,1.446-12.467,7.523-11.223c6.01,1.233,8.61,9.72,8.913,14.957
					c0.18,3.217,0.493,6.413,0.863,9.608c0.348,2.96,0.729,5.931,1.076,8.902C139.102,108.865,136.961,117.004,131.063,115.793z"/>
			</g>
			<g>
				<path fill="#FCD6B1" d="M137.51,95.668c-0.941,0.583-1.906,1.144-2.858,1.692c-0.92,0.527-1.873,1.065-2.927,1.188
					c-1.458,0.169-2.882-0.516-4.171-1.222c-2.22-1.211-4.361-2.59-6.335-4.171c-0.426-3.599-0.796-7.209-1.009-10.831
					c-0.246-4.26,1.446-12.467,7.523-11.223c6.01,1.233,8.61,9.72,8.913,14.957C136.826,89.277,137.14,92.473,137.51,95.668z"/>
				<path fill="#FCD6B1" d="M108.96,65.998c0,6.41,1.568,13.118,5.484,18.313c3.174,4.209,7.478,7.463,12.101,9.996
					c1.294,0.708,2.712,1.384,4.178,1.219c1.052-0.118,2.003-0.659,2.921-1.189c3.719-2.147,7.539-4.381,10.146-7.793
					c2.467-3.228,3.644-7.259,4.323-11.263c1.18-6.947,2.188-15.738-2.552-21.515c-3.723-4.538-10.16-6.679-15.885-6.679
					C119.865,47.086,108.96,53.183,108.96,65.998z"/>
			</g>
		</g>
		<g>
			<g>
				<path fill="#68411D" d="M120.813,65.304c0.96-0.264,1.809-0.557,2.822-0.576c1.225-0.024,2.323,0.424,3.404,0.947
					c0.228,0.11,0.502-0.186,0.286-0.371c-1.718-1.479-4.858-1.765-6.672-0.274C120.521,65.138,120.664,65.346,120.813,65.304
					L120.813,65.304z"/>
			</g>
		</g>
		
			<ellipse transform="matrix(0.989 -0.1482 0.1482 0.989 -9.604 17.1583)" fill="#FCD6B1" cx="110.324" cy="73.019" rx="4.615" ry="5.803"/>
		<path opacity="0.4275" fill="#523D6B" d="M134.703,59.178c-1.052,1.186-2.2,2.287-3.404,3.289c-2.667,2.22-5.677,4.087-8.993,5.11
			c-3.316,1.023-8.052,1.6-11.329,0.458c-2.452-0.854-1.789-3.274-2.279-5.539c-0.219-1.012-0.4-2.032-0.539-3.058
			c-0.275-2.044-0.401-4.13-0.202-6.187c0.097-0.999,0.271-1.995,0.583-2.95c2.315-7.105,9.021-16.102,17.536-15.256
			c3.015,0.3,6.195,2.451,8.923,3.684c1.845,0.834,3.813,1.779,4.786,3.553c0.635,1.156,0.757,2.526,0.707,3.845
			C140.309,50.996,137.973,55.494,134.703,59.178z"/>
		<path fill="#463360" d="M132.94,59.056c-1.052,1.185-2.199,2.287-3.403,3.289c-2.668,2.221-5.677,4.088-8.993,5.111
			c-3.316,1.023-8.052,1.6-11.329,0.458c-2.452-0.854-1.79-3.274-2.28-5.54c-0.219-1.012-0.399-2.032-0.538-3.058
			c-0.276-2.043-0.402-4.129-0.202-6.186c0.097-0.999,0.271-1.995,0.582-2.95c2.316-7.106,9.022-16.102,17.537-15.256
			c3.015,0.3,6.195,2.451,8.923,3.684c1.844,0.833,3.813,1.778,4.786,3.553c0.635,1.157,0.757,2.526,0.707,3.845
			C138.546,50.874,136.21,55.371,132.94,59.056z"/>
		<path opacity="0.4275" fill="#523D6B" d="M136.086,53.461c3.859,2.701,8.135,5.05,10.611,9.023
			c1.514,2.43,2.223,5.352,1.992,8.205c-0.225,2.78-1.31,5.472-1.23,8.26c0.127,4.434,3.646,8.47,7.928,9.452
			c0.537,0.123,0.947-0.482,0.614-0.92c-1.325-1.746-1.978-4.006-1.732-6.188c0.317-2.825,2.034-5.353,2.107-8.215
			c0.054-2.104-0.965-3.752-2.041-5.407c-1.339-2.06-2.042-5.727-1.525-8.13c0.411-1.917,1.064-3.785,1.304-5.731
			c0.528-4.301-1.034-8.658-3.495-12.225c-2.991-4.337-7.34-7.724-12.277-9.563c-2.545-0.948-6.679-2.283-9.418-1.617
			c-2.413,0.587-2.721,5.864-2.715,8.151c0.007,2.854,0.771,5.741,2.4,8.085c1.749,2.517,3.999,4.271,6.431,6.068
			C135.384,52.964,135.733,53.214,136.086,53.461z"/>
		<path fill="#463360" d="M137.551,53.647c3.859,2.701,8.135,5.05,10.61,9.023c1.514,2.43,2.224,5.351,1.993,8.205
			c-0.225,2.78-1.311,5.472-1.23,8.26c0.126,4.434,3.646,8.47,7.928,9.452c0.537,0.123,0.947-0.482,0.614-0.921
			c-1.326-1.746-1.979-4.006-1.733-6.188c0.318-2.825,2.035-5.352,2.108-8.215c0.054-2.104-0.966-3.752-2.041-5.407
			c-1.34-2.06-2.042-5.727-1.526-8.13c0.412-1.917,1.064-3.785,1.304-5.731c0.529-4.301-1.034-8.658-3.494-12.225
			c-2.992-4.337-7.34-7.724-12.278-9.563c-4.11-1.531-8.613-1.984-12.948-1.328c-1.701,0.257-3.812,0.314-4.22,2.372
			c-0.318,1.602,0.912,3.352,1.565,4.717c2.811,5.873,7.063,11.056,12.302,14.927C136.849,53.15,137.198,53.4,137.551,53.647z"/>
		<g>
			<g>
				<g>
					<path fill="#392A51" d="M108.543,67.233c7.117,2.734,16.397-2.976,20.271-8.785c0.219-0.328-0.247-0.63-0.516-0.398
						c-2.672,2.313-5.044,4.733-8.172,6.467c-3.686,2.043-7.445,2.193-11.531,2.329C108.363,66.854,108.34,67.156,108.543,67.233
						L108.543,67.233z"/>
				</g>
			</g>
			<g>
				<g>
					<path fill="#392A51" d="M109.128,67.226c6.238-0.522,12.881-5.65,16.163-10.761c0.266-0.412-0.354-0.897-0.681-0.525
						c-2.219,2.526-4.489,4.86-7.272,6.777c-2.607,1.795-5.518,2.727-8.316,4.118C108.838,66.925,108.921,67.243,109.128,67.226
						L109.128,67.226z"/>
				</g>
			</g>
			<g>
				<g>
					<path fill="#392A51" d="M108.829,67.101c1.437,0.007,2.347-1.475,3.104-2.538c1.572-2.208,3.132-4.505,4.396-6.905
						c0.303-0.573-0.488-1.014-0.854-0.5c-1.188,1.667-2.237,3.434-3.356,5.147c-0.645,0.987-1.258,2.004-1.981,2.936
						c-0.453,0.583-1.053,0.962-1.481,1.557C108.563,66.925,108.688,67.1,108.829,67.101L108.829,67.101z"/>
				</g>
			</g>
		</g>
		<g>
			<g>
				<path fill="#392A51" d="M146.541,89.539c0.869,4.727,5.222,7.462,9.291,9.263c5.69,2.517,11.515,4.212,13.78,10.628
					c0.168,0.477,0.997,0.439,0.938-0.127c-0.48-4.541-4.586-7.348-8.383-9.159c-5.687-2.714-12.593-4.112-14.833-10.823
					C147.165,88.812,146.445,89.02,146.541,89.539L146.541,89.539z"/>
			</g>
		</g>
		<g>
			<g>
				<path fill="#392A51" d="M142.914,92.779c-0.523,3.026,2.278,5.527,4.691,6.814c0.443,0.235,0.973-0.374,0.558-0.723
					c-2.106-1.768-4.231-3.01-4.569-6C143.554,92.516,142.986,92.363,142.914,92.779L142.914,92.779z"/>
			</g>
		</g>
		<g>
			<g>
				<path fill="#392A51" d="M102.124,73.458c-1.687,2.99-4.003,4.592-7.419,4.947c-1.617,0.168-3.246,0.572-4.278,1.939
					c-3.276,4.334-0.368,9.341-0.483,14.132c-0.095,3.95-2.91,5.026-6.217,5.69c-1.8,0.361-3.166,1.282-3.936,2.956
					c-1.895,4.125,2.373,8.853,3.688,12.439c0.18,0.49,1.06,0.461,0.98-0.133c-0.563-4.239-8.036-12.118-0.4-14.055
					c1.62-0.411,3.546-0.441,4.843-1.66c1.283-1.206,2.051-2.78,2.215-4.547c0.448-4.803-4.189-13.905,2.996-15.524
					c2.061-0.464,3.723-0.604,5.537-1.805c1.475-0.975,2.54-2.463,3.114-4.11C102.897,73.348,102.316,73.117,102.124,73.458
					L102.124,73.458z"/>
			</g>
		</g>
		<g>
			<path fill="#7970E5" d="M156.384,119.5c1.663-2.129,3.389-4.313,5.74-5.641c2.352-1.329,5.514-1.603,7.639,0.065
				c1.138,0.894,1.843,2.215,2.493,3.507c2.12,4.213,4,8.546,5.628,12.973c1.927,5.241,4.127,11.289,9.378,13.188
				c3.942,1.425,8.582-0.005,12.356,1.817c4.45,2.148,5.81,7.815,5.938,12.754c0.13,4.939-0.357,10.247,2.23,14.456
				c2.73,4.44,8.746,7.627,8.129,12.804c-0.421,3.537-3.952,5.836-7.332,6.963c-13.735,4.578-28.689-1.945-43.117-0.74
				c-5.13,0.429-11.092,1.578-14.774-2.018c-1.744-1.702-2.529-4.138-3.152-6.494c-5.295-20.03-3.014-41.969,6.289-60.481"/>
		</g>
		<g>
			<g>
				<path fill="#5D5AE0" d="M155.065,144.314c0.334-3.766,0.684-7.597,2.11-11.099c1.427-3.501,4.118-6.687,7.743-7.763
					c3.342-0.993,7.187-0.147,10.216-1.872c2.72-1.55,3.987-4.705,5.416-7.49c1.428-2.785,3.676-5.687,6.804-5.799
					c3.8-0.137,6.476,4.166,6.251,7.962c-0.225,3.795-2.379,7.155-4.158,10.516c-2.313,4.367-3.736,9.986-1.669,14.664
					c1.544,3.494,5.732,7.57,3.802,11.696c-0.923,1.971-3.065,3.037-5.116,3.768c-2.05,0.729-4.254,1.326-5.813,2.846
					c-1.559,1.519-2.099,4.356-0.46,5.787c1.964,1.714,5.529,0.349,7.305,2.257c0.671,0.721,0.896,1.763,0.86,2.746
					c-0.16,4.468-4.693,7.312-8.677,9.341c-5.254,2.677-14.145,5.274-18.063,9.626c-5.827-14.205-7.281-31.899-7.777-47.111"/>
			</g>
			<path opacity="0.382" fill="#7970E5" d="M187.379,116.04c-6.037,7.706-11.022,16.068-14.808,25.063
				c-0.243,0.244-0.483,0.488-0.728,0.732c-0.214,0.214-0.057,0.564,0.183,0.629c-0.2,0.494-0.401,0.988-0.595,1.487
				c0.115-5.598,0.002-11.041,1.421-16.58c0.087-0.339-0.432-0.482-0.523-0.145c-1.604,5.926-2.945,12.483-1.639,18.604
				c0.002,0.01,0.012,0.012,0.015,0.021c-3.708,10.064-6.592,21.346-6.322,32.089c0.011,0.461,0.772,0.612,0.843,0.114
				c0.78-5.548,1.546-10.99,2.6-16.372c6.524-4.323,12.333-10.612,16.262-17.361c0.106-0.183-0.163-0.409-0.303-0.233
				c-4.825,6.061-9.969,11.338-15.721,16.46c0.996-4.882,2.236-9.718,3.979-14.536c0.589-1.629,1.229-3.242,1.892-4.846
				c5.036-4.019,8.874-9.647,11.643-15.36c0.114-0.236-0.222-0.44-0.354-0.208c-2.825,4.918-6.363,9.021-10.201,13.007
				c3.458-7.833,7.778-15.307,12.854-22.182C188.085,116.136,187.6,115.758,187.379,116.04z"/>
		</g>
		<g>
			<g>
				<g>
					<path fill="#3131A8" d="M169.691,189.993c2.037-14.541,6.696-28.207,14.318-40.789c3.835-6.331,8.379-12.215,13.396-17.65
						c5.157-5.586,10.948-11.41,18.072-14.357c0.591-0.245,0.378-1.183-0.273-0.988c-7.031,2.099-12.669,8.129-17.61,13.277
						c-5.198,5.415-9.802,11.397-13.818,17.735c-8.063,12.72-13.74,27.576-14.962,42.653
						C168.773,190.373,169.622,190.491,169.691,189.993L169.691,189.993z"/>
				</g>
			</g>
			<g>
				<path fill="#3131A8" d="M206.064,121.644c2.598-0.883,5.195-1.766,7.792-2.647c2.194-0.745,4.601-1.671,5.63-3.746
					c0.089-0.181,0.168-0.389,0.104-0.579c-0.094-0.28-0.433-0.382-0.725-0.421c-2.342-0.313-4.685,0.756-6.507,2.261
					c-1.822,1.504-4.654,3.529-6.212,5.307"/>
			</g>
			<g>
				<path fill="#3131A8" d="M198.09,128.982c-0.639-3.963-0.016-8.12,1.756-11.723c0.258-0.523,0.626-1.098,1.206-1.16
					c0.704-0.076,1.232,0.659,1.392,1.35c0.271,1.181-0.05,2.41-0.412,3.566c-0.823,2.632-1.868,5.194-3.12,7.651"/>
			</g>
			<g>
				<path fill="#3131A8" d="M190.701,137.577c-0.669-4.148-0.017-8.5,1.838-12.271c0.27-0.548,0.655-1.148,1.263-1.215
					c0.736-0.08,1.29,0.69,1.456,1.412c0.284,1.236-0.052,2.523-0.431,3.733c-0.862,2.756-1.956,5.438-3.267,8.011"/>
			</g>
			<g>
				<path fill="#3131A8" d="M183.369,148.781c-1.954-3.721-2.721-8.054-2.161-12.218c0.081-0.605,0.256-1.298,0.811-1.554
					c0.673-0.311,1.442,0.244,1.83,0.876c0.662,1.081,0.753,2.408,0.778,3.676c0.06,2.887-0.124,5.778-0.548,8.634"/>
			</g>
			<g>
				<path fill="#3131A8" d="M203.264,125.015c3.521,0.592,7.221,0.063,10.434-1.492c0.468-0.226,0.98-0.55,1.04-1.065
					c0.071-0.625-0.579-1.1-1.192-1.245c-1.048-0.248-2.143,0.03-3.173,0.346c-2.346,0.717-4.631,1.631-6.823,2.729"/>
			</g>
			<g>
				<path fill="#3131A8" d="M195.755,133.057c4.202,0.706,8.62,0.074,12.456-1.781c0.558-0.27,1.17-0.657,1.24-1.272
					c0.086-0.746-0.691-1.313-1.422-1.486c-1.252-0.296-2.56,0.036-3.789,0.412c-2.8,0.855-5.527,1.947-8.146,3.259"/>
			</g>
			<g>
				<path fill="#3131A8" d="M188.257,142.722c4.202,0.707,8.619,0.075,12.455-1.78c0.558-0.271,1.17-0.657,1.241-1.272
					c0.086-0.746-0.691-1.313-1.423-1.486c-1.251-0.296-2.559,0.036-3.788,0.412c-2.801,0.855-5.528,1.946-8.146,3.258"/>
			</g>
			<g>
				<path fill="#3131A8" d="M181.067,153.792c4.203,0.706,8.62,0.074,12.456-1.781c0.558-0.27,1.17-0.656,1.241-1.271
					c0.086-0.747-0.691-1.313-1.423-1.486c-1.252-0.297-2.559,0.036-3.789,0.412c-2.8,0.855-5.527,1.946-8.145,3.258"/>
			</g>
		</g>
		<g>
			<g>
				<g>
					<path fill="#3131A8" d="M97.653,190.294c-8.839-5.564-17.015-11.698-24.269-19.252c-7.275-7.575-14.904-16.723-17.763-26.994
						c-0.15-0.539-1.083-0.45-1.007,0.137c0.689,5.326,3.842,9.946,6.838,14.259c3.004,4.326,6.352,8.411,9.923,12.278
						c7.374,7.986,16.152,15.308,25.826,20.344C97.713,191.332,98.142,190.602,97.653,190.294L97.653,190.294z"/>
				</g>
			</g>
			<g>
				<path fill="#3131A8" d="M58.695,154.072c-0.502-2.696-1.005-5.394-1.508-8.09c-0.425-2.277-0.997-4.792-2.904-6.106
					c-0.166-0.114-0.36-0.222-0.559-0.186c-0.29,0.052-0.439,0.373-0.52,0.656c-0.645,2.273,0.079,4.745,1.309,6.763
					c1.229,2.019,2.829,5.111,4.366,6.905"/>
			</g>
			<g>
				<path fill="#3131A8" d="M64.82,163.012c-4.014,0.066-8.039-1.143-11.352-3.411c-0.481-0.329-0.997-0.776-0.977-1.359
					c0.025-0.707,0.829-1.125,1.534-1.184c1.207-0.101,2.379,0.393,3.471,0.916c2.488,1.19,4.876,2.591,7.129,4.181"/>
			</g>
			<g>
				<path fill="#3131A8" d="M72.273,171.552c-4.201,0.069-8.415-1.196-11.883-3.57c-0.504-0.346-1.044-0.813-1.022-1.424
					c0.026-0.74,0.867-1.178,1.605-1.239c1.265-0.104,2.49,0.412,3.634,0.959c2.604,1.247,5.104,2.712,7.463,4.377"/>
			</g>
			<g>
				<path fill="#3131A8" d="M82.316,180.408c-3.962,1.402-8.359,1.543-12.401,0.396c-0.588-0.167-1.248-0.438-1.422-1.024
					c-0.211-0.71,0.447-1.393,1.128-1.686c1.164-0.501,2.491-0.401,3.75-0.246c2.865,0.353,5.7,0.947,8.467,1.774"/>
			</g>
			<g>
				<path fill="#3131A8" d="M61.633,157.326c1.088-3.4,1.093-7.138,0.013-10.54c-0.157-0.495-0.405-1.049-0.906-1.181
					c-0.609-0.161-1.172,0.416-1.402,1.002c-0.396,1.002-0.276,2.125-0.111,3.189c0.374,2.424,0.953,4.816,1.728,7.143"/>
			</g>
			<g>
				<path fill="#3131A8" d="M68.521,165.905c1.299-4.059,1.304-8.521,0.015-12.583c-0.188-0.59-0.483-1.251-1.082-1.409
					c-0.727-0.191-1.398,0.497-1.674,1.196c-0.472,1.196-0.329,2.537-0.133,3.809c0.447,2.894,1.138,5.749,2.063,8.527"/>
			</g>
			<g>
				<path fill="#3131A8" d="M77.018,174.706c1.299-4.059,1.304-8.521,0.015-12.582c-0.188-0.591-0.483-1.252-1.082-1.41
					c-0.727-0.191-1.398,0.497-1.674,1.196c-0.472,1.196-0.33,2.538-0.133,3.809c0.446,2.894,1.138,5.749,2.063,8.527"/>
			</g>
			<g>
				<path fill="#3131A8" d="M86.948,183.401c1.299-4.059,1.304-8.521,0.015-12.583c-0.188-0.59-0.483-1.251-1.082-1.409
					c-0.727-0.191-1.398,0.497-1.674,1.196c-0.472,1.196-0.329,2.537-0.133,3.809c0.447,2.894,1.138,5.749,2.063,8.526"/>
			</g>
		</g>
		<g>
			<g>
				<g>
					<path fill="#3131A8" d="M175.987,197.018c8.131-6.771,14.831-15.414,20.33-24.404c2.91-4.759,5.409-9.761,7.584-14.895
						c2.041-4.821,4.193-10.104,3.734-15.44c-0.057-0.654-0.987-0.666-1.025,0c-0.604,10.547-6.03,20.785-11.366,29.707
						c-5.457,9.124-12.331,16.982-19.888,24.401C174.938,196.797,175.553,197.381,175.987,197.018L175.987,197.018z"/>
				</g>
			</g>
			<g>
				<path fill="#3131A8" d="M205.738,152.699c-0.082-2.742-0.164-5.484-0.246-8.227c-0.068-2.315-0.044-4.894,1.541-6.584
					c0.138-0.146,0.305-0.293,0.506-0.3c0.295-0.011,0.508,0.271,0.647,0.531c1.113,2.084,0.931,4.653,0.158,6.887
					c-0.771,2.233-1.679,5.595-2.799,7.675"/>
			</g>
			<g>
				<path fill="#3131A8" d="M201.653,162.736c3.937-0.787,7.612-2.825,10.367-5.745c0.4-0.425,0.81-0.971,0.665-1.536
					c-0.174-0.686-1.049-0.924-1.75-0.831c-1.201,0.159-2.24,0.89-3.197,1.634c-2.178,1.691-4.213,3.567-6.077,5.6"/>
			</g>
			<g>
				<path fill="#3131A8" d="M196.186,172.665c4.121-0.824,7.969-2.957,10.853-6.014c0.419-0.444,0.848-1.017,0.696-1.608
					c-0.183-0.718-1.098-0.967-1.832-0.869c-1.258,0.166-2.346,0.931-3.347,1.709c-2.279,1.771-4.41,3.734-6.361,5.862"/>
			</g>
			<g>
				<path fill="#3131A8" d="M188.255,183.453c4.169,0.529,8.496-0.269,12.202-2.249c0.538-0.288,1.126-0.693,1.172-1.303
					c0.055-0.739-0.733-1.267-1.461-1.408c-1.244-0.242-2.52,0.138-3.717,0.557c-2.725,0.954-5.369,2.138-7.896,3.533"/>
			</g>
			<g>
				<path fill="#3131A8" d="M203.56,156.501c-1.786-3.091-2.585-6.742-2.252-10.296c0.048-0.517,0.172-1.11,0.635-1.347
					c0.561-0.286,1.232,0.158,1.583,0.681c0.599,0.896,0.722,2.019,0.787,3.094c0.148,2.448,0.092,4.908-0.171,7.347"/>
			</g>
			<g>
				<path fill="#3131A8" d="M198.652,166.349c-2.131-3.689-3.085-8.049-2.688-12.292c0.058-0.616,0.206-1.325,0.758-1.607
					c0.669-0.342,1.472,0.188,1.89,0.813c0.716,1.068,0.861,2.409,0.939,3.693c0.179,2.922,0.11,5.859-0.203,8.771"/>
			</g>
			<g>
				<path fill="#3131A8" d="M192.221,176.755c-2.132-3.69-3.085-8.049-2.688-12.292c0.058-0.617,0.206-1.326,0.758-1.607
					c0.669-0.342,1.472,0.188,1.89,0.813c0.715,1.069,0.861,2.41,0.939,3.693c0.178,2.923,0.109,5.86-0.203,8.771"/>
			</g>
			<g>
				<path fill="#3131A8" d="M184.364,187.362c-2.132-3.689-3.085-8.049-2.688-12.292c0.058-0.616,0.206-1.325,0.758-1.607
					c0.669-0.342,1.472,0.188,1.89,0.813c0.716,1.068,0.861,2.409,0.939,3.693c0.179,2.922,0.11,5.859-0.203,8.771"/>
			</g>
		</g>
		<g>
			<g>
				<path fill="#392A51" d="M106.684,83.153c-0.167-0.023-0.309-0.028-0.478-0.007c-0.106,0.013-0.106,0.153,0,0.166
					c0.169,0.021,0.311,0.016,0.478-0.007C106.759,83.295,106.759,83.164,106.684,83.153L106.684,83.153z"/>
			</g>
		</g>
		
			<path fill="none" stroke="#E59E6E" stroke-width="0.5606" stroke-linecap="round" stroke-linejoin="round" stroke-miterlimit="10" d="
			M134.053,68.024c-0.071,1.636-0.035,3.277,0.107,4.91c0.063,0.729,0.018,1.754,0.293,2.436c0.203,0.502,0.95,0.707,1.451,0.857
			c0.26,0.078,0.528,0.137,0.772,0.257s0.468,0.312,0.553,0.569c0.093,0.281,0.006,0.598-0.165,0.839
			c-0.17,0.242-0.414,0.42-0.662,0.582c-0.527,0.345-1.092,0.633-1.681,0.859"/>
		<g>
			<path fill="#523D6B" d="M137.998,82.809c-0.123,1.188-0.595,2.265-1.312,3.139c-1.816,2.265-5.169,3.274-7.882,1.794
				c-0.605-0.325-1.178-0.729-1.693-1.2c-1.323-1.155-2.276-2.725-2.467-4.462c1.547,0.549,3.42,0.773,4.204,0.863
				c1.469,0.168,2.96,0.314,4.418,0.101c1.704-0.247,3.341-0.987,4.652-2.108C138.076,81.575,138.021,82.584,137.998,82.809z"/>
			<path fill="#F85C55" d="M136.687,85.948c-1.816,2.265-5.169,3.274-7.882,1.794c-0.605-0.325-1.178-0.729-1.693-1.2
				c1.076-1.334,2.948-2.22,5.079-2.22C133.984,84.322,135.587,84.95,136.687,85.948z"/>
		</g>
		<ellipse fill="#FCC2A2" cx="142.862" cy="74.325" rx="4.676" ry="1.864"/>
		<g>
			<g>
				<path fill="#F9B485" d="M156.669,138.302c-0.53-1.192-0.978-2.416-1.286-3.687c-0.288-1.189-0.448-2.447-0.134-3.63
					c0.761-2.866,5.52-4.441,8.052-5.152c1.18-0.332,2.794-0.258,3.857-0.807c1.346,4.7,2.993,9.318,5.012,13.772
					c1.009,2.228,2.11,4.413,3.31,6.544c1.175,2.086,2.623,3.777,3.969,5.737c2.592,3.776,4.009,8.249,4.523,12.775
					c0.248,2.181,0.312,4.394,0.118,6.581c-0.18,2.034-0.699,3.219-2.463,1.474c-0.696-0.688-1.559-1.144-2.256-1.829
					c-2.286-2.247-4.072-4.976-6.414-7.202c-1.782-1.695-3.735-3.237-5.232-5.188c-0.813-1.061-1.479-2.225-2.143-3.385
					c-2.061-3.608-4.122-7.217-6.184-10.826C158.433,141.789,157.459,140.081,156.669,138.302z"/>
			</g>
			<path fill="#F7B228" d="M166.021,194.006c-0.078,0.057-0.168,0.112-0.247,0.157c-0.751,0.438-1.67,0.527-2.545,0.595
				c-9.664,0.796-19.374,0.997-29.072,0.616c-5.225-0.213-10.438-0.583-15.651-1.009c-2.433-0.202-5.65-0.168-7.893-1.278
				c-2.187-1.099-0.472-4.07,0.011-6.145c1.256-5.303,2.388-10.65,2.77-16.1c0.784-11.357-3.15-20.81-8.465-30.597
				c-2.31-4.261-4.743-8.499-6.278-13.096c-1.514-4.507-1.884-9.261-1.1-13.937c0.707-4.126,5.887-4.82,9.272-5.931
				c3.801-1.25,7.453-2.919,11.067-4.624c0.988-0.467,4.24-2.114,4.24-2.114s1.463,1.928,2.024,2.503
				c1.68,1.719,3.886,2.923,6.229,3.448c1.335,0.299,2.893,0.604,4.227,0.179c2.653-0.846,3.449-3.788,3.449-6.31
				c0,0.303,4.294,3.14,4.697,3.476c2.119,1.749,4.227,3.487,6.346,5.236c1.133,0.931,2.276,1.872,3.195,3.016
				c1.133,1.401,1.896,3.062,2.646,4.709c0.583,1.278,1.166,2.557,1.749,3.835c0.516,1.132,1.031,2.265,1.559,3.396
				c0,0.022,0.011,0.034,0.011,0.045c0.157,0.325,0.303,0.65,0.448,0.976c0.202,0.438,0.404,0.875,0.605,1.323
				c0.112,0.258,0.225,0.505,0.337,0.763c2.422,5.516,4.024,10.987,2.04,17.019c-0.729,2.209-1.85,4.272-2.657,6.447
				c-1.805,4.922-2.119,10.954-1.02,16.078c0.381,1.782,0.975,3.565,1.625,5.358c1.48,4.07,2.96,8.141,4.429,12.21
				C164.821,186.304,168.364,192.302,166.021,194.006z"/>
			<path fill="#F7B228" d="M145.413,102.946c3.018,0.939,6.04,1.877,9.1,2.746c1.102,0.313,2.215,0.63,3.214,1.19
				c2.631,1.476,4.074,4.37,5.365,7.097c1.257,2.653,2.513,5.307,3.77,7.961c1.096,2.313,1.804,4.144,2.195,6.609
				c-2.48,1.078-5.024,1.896-7.434,3.18c-2.458,1.309-4.613,3.354-7.062,4.577c1.526-1.18-9.38-21.302-10.336-23.182
				c-1.878-3.696-4.563-3.647-5.673-7.889c-0.727-2.775,0.068-1.588-0.466-4.886c0.034,0.212,1.116,0.576,1.296,0.652
				c0.464,0.196,0.938,0.367,1.416,0.513C142.338,101.988,143.875,102.467,145.413,102.946z"/>
			<path opacity="0.2801" fill="#F85C55" d="M161.693,144.159c-0.729,2.209-1.85,4.272-2.657,6.447
				c-1.805,4.922-2.119,10.954-1.02,16.078c-7.859,2.332-16.303,2.971-24.543,3.408c-3.195,0.157-6.525,0.28-9.451-0.998
				c-3.745-1.637-6.2-5.281-8.084-8.913c-2.747-5.292-4.698-10.988-5.83-16.841c-0.572-2.96-0.931-5.976-1.065-8.991
				c-0.067-1.458,0.057-2.96-0.045-4.406c-0.101-1.346-0.571-2.657-0.056-4.014c0.393-1.032,1.547-1.861,2.601-1.503
				c0.505,0.18,0.897,0.595,1.256,1.009c5.001,5.942,7.041,14.699,13.903,18.993c7.164,4.474,16.48,3.733,24.464,0.986
				c1.884-0.639,3.789-1.435,5.135-2.893c2.107-2.275,2.377-5.684,2.299-8.79c-0.112-4.059-0.617-9.429-1.974-13.196
				c0.022,0.034,0.045,0.067,0.067,0.102c0.65,0.908,1.166,2.275,1.559,3.396c0,0.022,0.011,0.034,0.011,0.045
				c0.314,0.886,0.527,1.615,0.695,1.828c0.123,0.156,0.235,0.313,0.358,0.471c0.112,0.258,0.225,0.505,0.337,0.763
				C162.075,132.656,163.678,138.127,161.693,144.159z"/>
			<g>
				<path fill="#F9B485" d="M183.339,172.823c-0.022,0.033-0.056,0.067-0.09,0.101c-0.448,0.482-1.244,0.438-1.839,0.628
					c-0.784,0.247-1.592,0.471-2.41,0.65c-1.581,0.358-3.206,0.549-4.832,0.482c-4.036-0.146-7.826-1.806-11.57-3.297
					c-1.66-0.661-3.33-1.289-5.023-1.895c-3.633-1.301-7.31-2.455-11.032-3.476c-1.85-0.505-3.723-0.965-5.595-1.401
					c-2.69-0.617-7.201-1.286-9.713-2.441c-2.512-1.154-3.046-2.873-4.179-5.396c-0.393-0.875-0.628-1.873-0.415-2.814
					c0.225-0.942-1.183-1.705-0.218-1.772c0.549-0.045-0.006-0.19,0.51,0c10.383,4.014,23.881,3.947,35.463,4.833
					c1.95,0.146,3.936,0.337,5.976,0.583c0.247,0.022,0.505,0.057,0.751,0.09c2.714,0.358,5.55-0.986,8.129-0.078
					c2.825,0.997,4.821,3.654,5.763,6.491c0.482,1.446,0.527,2.971,0.527,4.484c0,0.785-0.022,1.57,0.022,2.354
					C183.597,171.544,183.721,172.307,183.339,172.823z"/>
			</g>
			<path opacity="0.4919" fill="#FFCBA1" d="M169.464,159.519c-0.28,0.393-0.886,0.707-1.256,1.01
				c-1.716,1.446-3.342,3.016-4.844,4.687c-1.704,1.905-3.263,3.946-4.642,6.099c-0.022,0.034-0.034,0.057-0.057,0.09
				c-3.632-1.301-7.31-2.455-11.032-3.476c1.413-2.187,3.813-3.498,6.11-4.709c3.106-1.659,6.324-3.353,9.743-4.283
				c1.031-0.28,2.086-0.493,3.15-0.616c0.718-0.079,2.321-0.426,2.837,0.325C169.699,158.981,169.654,159.273,169.464,159.519z"/>
			<g>
				<path fill="#FCD6B1" d="M97.378,130.851c4.532,9.572,8.035,19.604,12.84,29.054c2.381,4.683,5.061,9.257,8.386,13.338
					c1.298,1.594,2.655,3.851,4.416,4.863c2.341,1.347,5.835,0.675,8.279,0.048c5.802-1.488,11.236-4.084,16.47-6.952
					c1.906-1.044,4.003-1.71,5.857-2.787c2.129-1.237,4.254-2.48,6.396-3.696c2.25-1.278,4.512-2.538,6.782-3.779
					c1.736-0.948,3.961-2.891,5.95-3.077c0.296-0.027,0.616-0.032,0.849-0.216c0.864-0.686-0.241-2.048-0.829-2.457
					c-0.442-0.307-0.884-0.614-1.326-0.921c-0.653-0.454-1.315-0.913-2.062-1.189c-2.485-0.923-4.423,0.336-6.77,1.032
					c-5.265,1.563-10.9,2.254-16.298,3.314c-5.653,1.11-11.4,1.744-17.161,1.887c-0.585,0.015-1.216,0.01-1.69-0.333
					c-0.507-0.367-0.698-1.021-0.861-1.626c-1.028-3.796-13.112-30.58-17.388-34.997c-3.934,2.442-7.587,5.335-10.866,8.604"/>
			</g>
			<g>
				<g>
					<path fill="#F7B228" d="M125.715,107.029c3.05,1.896,7.933,4.224,11.557,2.576c1.939-0.881,2.478-3.2,3.024-5.038
						c0.106-0.358-0.411-0.478-0.545-0.15c-0.657,1.607-1.033,3.416-2.592,4.417c-3.186,2.047-8.372-1.049-11.294-2.16
						C125.651,106.591,125.534,106.917,125.715,107.029L125.715,107.029z"/>
				</g>
			</g>
			<path fill="#F7B228" d="M118.402,136.974c0.033-0.121,0.013-0.271-0.081-0.458c-2.394-4.756-4.787-9.512-7.181-14.269
				c-1.594-3.166-3.199-6.354-5.349-9.173c-1.395-1.829-3.28-3.749-5.73-3.044c-2.468,0.709-4.185,3.211-4.79,5.836
				s-0.292,5.38,0.086,8.053c0.433,3.064,1.927,19.773,5.006,20.16c1.011,0.127,3.365-1.752,4.324-2.216
				c1.519-0.734,3.064-1.405,4.633-2.011c1.569-0.606,3.16-1.148,4.769-1.623c0.771-0.227,1.559-0.405,2.338-0.601
				C116.975,137.493,118.252,137.532,118.402,136.974z"/>
			<g>
				<g>
					<g>
						<path fill="#333333" d="M120.779,101.047c1.515,15.814,8.329,32.507,18.609,44.653c0.219,0.259,0.663-0.084,0.469-0.361
							c-4.729-6.793-9.019-13.703-12.237-21.354c-3.113-7.398-4.989-15.12-6.422-22.994
							C121.155,100.754,120.756,100.808,120.779,101.047L120.779,101.047z"/>
					</g>
				</g>
				<g>
					<g>
						<path fill="#333333" d="M139.509,101.067c0.753,7.711,1.605,15.313,1.618,23.077c0.006,3.862-0.171,7.727-0.458,11.577
							c-0.286,3.838-1.003,7.667-1.168,11.505c-0.011,0.24,0.351,0.281,0.413,0.056c2.008-7.315,2.023-15.604,2.017-23.138
							c-0.008-7.669-0.471-15.609-2.138-23.115C139.758,100.871,139.493,100.904,139.509,101.067L139.509,101.067z"/>
					</g>
				</g>
			</g>
			<path fill="#FFFFFF" d="M148.909,155.329l-15.591,1.372c-0.706,0.062-1.329-0.46-1.391-1.167l-0.849-9.64
				c-0.062-0.707,0.46-1.33,1.167-1.392l15.59-1.371c0.707-0.063,1.33,0.46,1.392,1.166l0.849,9.641
				C150.138,154.644,149.615,155.267,148.909,155.329z"/>
			<path fill="#EAEAEA" d="M147.294,153.926l-12.629,1.11c-0.706,0.063-1.329-0.46-1.392-1.166l-0.578-6.574
				c-0.063-0.706,0.46-1.329,1.166-1.391l12.629-1.111c0.706-0.062,1.329,0.46,1.392,1.166l0.578,6.574
				C148.522,153.241,148,153.864,147.294,153.926z"/>
		</g>
		<g>
			<g>
				<path fill="#E59E6E" d="M109.611,71.121c-0.871,0.459-1.263,1.281-1.284,2.247c-0.021,0.899,0.643,2.02,1.558,2.216
					c0.141,0.03,0.305-0.127,0.205-0.267c-0.395-0.554-0.9-0.895-1.111-1.586c-0.258-0.846,0.221-1.796,0.82-2.365
					C109.932,71.239,109.764,71.04,109.611,71.121L109.611,71.121z"/>
			</g>
		</g>
		<g>
			<g>
				<path fill="#68411D" d="M136.823,73.023c0.431-1.45,0.754-4.899,2.958-4.573c2.025,0.3,2.037,3.272,2.396,4.735
					c0.13,0.53,0.829,0.354,0.884-0.12c0.229-1.995-0.898-5.794-3.496-5.698c-2.573,0.096-3.749,3.492-3.159,5.655
					C136.463,73.234,136.763,73.227,136.823,73.023L136.823,73.023z"/>
			</g>
		</g>
		<g>
			<g>
				<path fill="#68411D" d="M121.079,73.718c0.43-1.451,0.753-4.899,2.957-4.573c2.025,0.3,2.037,3.272,2.396,4.735
					c0.13,0.53,0.829,0.354,0.884-0.12c0.229-1.995-0.898-5.794-3.495-5.698c-2.574,0.096-3.75,3.492-3.159,5.656
					C120.719,73.928,121.02,73.922,121.079,73.718L121.079,73.718z"/>
			</g>
		</g>
		<ellipse fill="#FCC2A2" cx="121.073" cy="75.809" rx="4.676" ry="1.864"/>
		<g>
			<g>
				<path fill="#392A51" d="M105.418,76.769c0.223,5.215-6.162,6.143-8.596,9.729c-1.852,2.729-1.805,5.746-1.604,8.922
					c0.308,4.851-0.068,8.886-3.729,12.505c-1.396,1.38-3.249,2.051-4.485,3.611c-0.98,1.239-1.085,2.994-0.876,4.485
					c0.075,0.536,0.992,0.531,1.072,0c0.222-1.467,0.198-2.816,1.199-4.076c0.665-0.837,1.848-1.402,2.725-1.994
					c1.423-0.958,2.527-2.29,3.504-3.68c2.3-3.27,2.132-7.061,1.801-10.852c-0.424-4.854,0.362-8.282,4.634-11.109
					c2.815-1.863,5.603-3.894,5.018-7.632C106.021,76.301,105.401,76.394,105.418,76.769L105.418,76.769z"/>
			</g>
		</g>
		<g>
			<g>
				<path fill="#392A51" d="M110.448,87.429c-0.677,1.825-1.204,3.5-2.435,5.063c-0.924,1.175-1.942,2.178-2.657,3.506
					c-1.429,2.654-0.004,6.252-0.653,9.134c-0.112,0.499,0.5,0.712,0.785,0.331c2.179-2.915-0.459-6.864,1.627-10.057
					c1.686-2.582,4.1-4.503,3.943-7.895C111.043,87.149,110.569,87.103,110.448,87.429L110.448,87.429z"/>
			</g>
		</g>
		<g>
			<g>
				<path fill="#68411D" d="M136.901,65.048c0.965-0.22,1.847-0.473,2.853-0.447c1.217,0.031,2.302,0.538,3.352,1.104
					c0.231,0.125,0.487-0.182,0.286-0.371c-1.63-1.538-4.758-1.979-6.617-0.586C136.629,64.856,136.71,65.091,136.901,65.048
					L136.901,65.048z"/>
			</g>
		</g>
		<path fill="#F9B485" d="M118.486,144.658c-0.147-0.1-0.305-0.203-0.483-0.213c-0.355-0.021-0.63,0.359-0.628,0.716
			s0.198,0.679,0.399,0.973c0.713,1.041,1.564,1.986,2.525,2.803c-1.71,0.078-3.434-0.136-5.073-0.629
			c-0.332-0.1-0.675-0.212-1.018-0.166c-0.344,0.047-0.688,0.31-0.693,0.656c-0.005,0.253,0.162,0.474,0.336,0.657
			c0.457,0.486,1.016,0.876,1.629,1.139c-0.332-0.101-0.676-0.203-1.02-0.156c-0.344,0.046-0.687,0.285-0.738,0.628
			c-0.064,0.439,0.342,0.793,0.715,1.033c1.338,0.86,2.819,1.495,4.364,1.869c-0.399-0.084-0.813-0.168-1.214-0.086
			c-0.4,0.081-0.787,0.374-0.847,0.777c-0.079,0.538,0.42,0.981,0.905,1.226c1.298,0.655,2.804,0.707,4.22,1.038
			c2.072,0.485,3.947,1.571,5.936,2.332c0.242,0.093,0.537,0.174,0.743,0.017c0.112-0.086,0.17-0.225,0.209-0.36
			c0.197-0.685,0.043-1.461-0.402-2.018c-0.193-0.242-0.437-0.444-0.591-0.713c-0.327-0.573-0.17-1.289-0.254-1.943
			C126.869,149.295,122.02,147.228,118.486,144.658z"/>
		<path fill="#FFFFFF" d="M205.241,50.099c-2.921-3.473-6.974-5.837-11.302-7.077c-1.814-0.52-3.688-0.874-5.579-1.106
			c-9.687-1.192-20.856,1.593-24.796,11.564c-0.897,2.271-1.324,4.558-1.216,6.722c-0.439,0.325-0.869,0.838-1.241,1.169
			c-0.263,0.234-0.525,0.468-0.789,0.703c-0.137,0.122-0.62,0.417-0.576,0.653c0.063,0.284,0.511,0.312,0.728,0.388
			c0.421,0.147,0.839,0.301,1.258,0.452c0.495,0.178,0.99,0.356,1.485,0.534c0.831,2.006,2.267,3.795,4.394,5.215
			c6.327,4.225,14.494,4.763,22.005,3.547c4.859-0.787,9.722-2.375,13.56-5.571c2.343-1.951,4.21-4.573,4.854-7.553
			C208.781,56.238,207.489,52.772,205.241,50.099z"/>
		<text transform="matrix(1 0 0 1 173.416 64.3901)" fill="#523D6B" font-family="'Amatic-Bold'" font-size="16.8104">Hello!</text>
		<g>
			<g>
				<path fill="#E1E2FF" d="M231.481,59.917c0.338,15.018,2.734,29.445,7.925,43.588c5.111,13.926,13.703,26.194,17.494,40.634
					c0.182,0.689,1.136,0.381,1.039-0.287c-0.973-6.725-4.023-13.004-7.06-19.013c-3.478-6.884-7.059-13.643-9.869-20.841
					c-5.419-13.879-8.726-29.169-9.135-44.081C231.869,59.664,231.476,59.663,231.481,59.917L231.481,59.917z"/>
			</g>
		</g>
		<circle fill="#FFFFFF" cx="162.944" cy="32.437" r="4.253"/>
		<circle fill="#F7B228" cx="55.958" cy="113.868" r="4.253"/>
		<circle fill="#FFFFFF" cx="34.269" cy="143.408" r="4.253"/>
		<circle fill="#7970E5" cx="60.244" cy="85.279" r="3.362"/>
		<circle fill="#7970E5" cx="189.035" cy="90.474" r="4.253"/>
		<circle fill="#FFFFFF" cx="219.786" cy="163.684" r="4.253"/>
		<circle fill="#FFFFFF" cx="178.41" cy="82.593" r="2.104"/>
		<circle fill="#F7B228" cx="43.203" cy="163.132" r="2.104"/>
		<circle fill="#FFFFFF" cx="218.329" cy="143.292" r="2.104"/>
		<circle fill="#F7B228" cx="180.7" cy="103.006" r="2.104"/>
		<circle fill="#7970E5" cx="241.635" cy="156.482" r="2.104"/>
		<circle fill="#FFFFFF" cx="36.099" cy="102.78" r="2.104"/>
		<circle fill="#F7B228" cx="211.724" cy="135.925" r="2.104"/>
		<path fill="#8C5C07" d="M159.304,131.198l-9.676,1.213c-0.561,0.07-1.072-0.327-1.143-0.889l-0.318-2.532
			c-0.07-0.561,0.328-1.072,0.889-1.143l9.676-1.214c0.562-0.07,1.073,0.327,1.144,0.889l0.317,2.532
			C160.263,130.616,159.865,131.127,159.304,131.198z"/>
		<g>
			<path fill="#8C5C07" d="M198.404,196.782H80.684c-1.653,0-2.992-1.34-2.992-2.992l0,0c0-1.652,1.339-2.992,2.992-2.992h117.721
				c1.652,0,2.992,1.34,2.992,2.992l0,0C201.396,195.442,200.057,196.782,198.404,196.782z"/>
			<g>
				<g>
					<path fill="#8C5C07" d="M158.551,193.067c11.759,0.269,23.671,1.009,35.426,0.571c0.156-0.006,0.154-0.229,0-0.24
						c-11.722-0.869-23.678-0.564-35.426-0.507C158.438,192.892,158.438,193.064,158.551,193.067L158.551,193.067z"/>
				</g>
			</g>
			<g>
				<g>
					<path fill="#8C5C07" d="M86.328,195.263c11.758,0.269,23.67,1.008,35.426,0.57c0.156-0.006,0.153-0.229,0-0.24
						c-11.721-0.868-23.678-0.563-35.426-0.506C86.215,195.088,86.215,195.26,86.328,195.263L86.328,195.263z"/>
				</g>
			</g>
			<g>
				<g>
					<path fill="#8C5C07" d="M90.541,193.859c11.759,0.269,23.67,1.008,35.426,0.571c0.156-0.006,0.153-0.229,0-0.24
						c-11.721-0.869-23.678-0.564-35.426-0.507C90.428,193.684,90.428,193.856,90.541,193.859L90.541,193.859z"/>
				</g>
			</g>
			<g>
				<g>
					<path fill="#8C5C07" d="M132.75,194.304c11.759,0.269,23.671,1.008,35.426,0.57c0.156-0.006,0.154-0.229,0-0.24
						c-11.722-0.868-23.678-0.563-35.426-0.506C132.637,194.129,132.637,194.301,132.75,194.304L132.75,194.304z"/>
				</g>
			</g>
			<g>
				<g>
					<path fill="#8C5C07" d="M113.848,192.673c11.759,0.269,23.671,1.008,35.426,0.571c0.156-0.006,0.153-0.229,0-0.24
						c-11.722-0.869-23.678-0.564-35.426-0.507C113.734,192.499,113.734,192.67,113.848,192.673L113.848,192.673z"/>
				</g>
			</g>
		</g>
		<g>
			<g>
				<path fill="#FFFFFF" d="M13.281,125.639c-2.271,9.866-2.142,20.034,0.26,29.864c2.282,9.346,6.856,19.697,13.941,26.405
					c0.316,0.3,0.895-0.101,0.625-0.483c-2.721-3.879-5.55-7.563-7.816-11.745c-2.352-4.339-4.102-8.979-5.402-13.732
					c-2.674-9.781-2.996-20.197-0.915-30.117C14.068,125.379,13.385,125.186,13.281,125.639L13.281,125.639z"/>
			</g>
		</g>
		<g>
			<g>
				<path fill="#E1E2FF" d="M229.188,44.329c0.496,2.459,0.592,4.914,0.735,7.41c0.024,0.418,0.62,0.417,0.648,0
					c0.172-2.545-0.301-5.076-0.962-7.526C229.536,43.938,229.133,44.055,229.188,44.329L229.188,44.329z"/>
			</g>
		</g>
	</g>
	<path fill="#E1E2FF" d="M92.489,51.258c-0.188,0.252-0.364,0.513-0.516,0.79c-0.388,0.706-0.607,1.489-0.824,2.264
		c-0.999,3.574-2.25,6.25-6.209,7.119c-2.68,0.588-6.023-0.066-7.334-2.745c-0.786-1.572-0.645-3.458-0.153-5.145
		c0.917-3.139,2.973-5.879,5.53-7.917c2.558-2.038,5.599-3.406,8.739-4.316c0.362-0.105,0.735-0.205,1.111-0.173
		c0.418,0.035,0.808,0.231,1.143,0.482c1.175,0.88,1.73,2.431,1.634,3.896c-0.098,1.465-0.778,2.843-1.682,4
		C93.466,50.107,92.939,50.657,92.489,51.258z"/>
	<path fill="#E1E2FF" d="M97.966,34.566c-0.73,1.356-1.891,2.184-1.864,3.724c0.035,1.985,1.97,4.148,4.047,3.134
		c0.669-0.327,1.191-0.899,1.593-1.526c0.774-1.211,1.146-2.746,0.704-4.113c-0.581-1.793-3.534-3.523-4.591-1.175"/>
</g>
</svg>
