<?xml version="1.0" encoding="utf-8"?>
<!-- Generator: Adobe Illustrator 16.0.0, SVG Export Plug-In . SVG Version: 6.00 Build 0)  -->
<!DOCTYPE svg PUBLIC "-//W3C//DTD SVG 1.1//EN" "http://www.w3.org/Graphics/SVG/1.1/DTD/svg11.dtd">
<svg version="1.1" id="Layer_1" xmlns="http://www.w3.org/2000/svg" xmlns:xlink="http://www.w3.org/1999/xlink" x="0px" y="0px"
	 width="424.5px" height="333px" viewBox="0 0 424.5 333" enable-background="new 0 0 424.5 333" xml:space="preserve">
<g>
	<g>
		<g>
			<path fill="#AFA1FF" d="M79.881,288.823c42.505,36.994,132.037,32.756,206.272,0c68.062-30.031,138.347,25.543,138.347,25.543
				V84.978c-44.406,41.996-109.778,13.863-167.297-22.057C188.15,19.798,101.401,50.571,68.907,90.774
				C12.878,160.093,39.065,253.3,79.881,288.823z"/>
			<path opacity="0.2" fill="#AFA1FF" d="M102.176,74.407c-46.575-8.84-95.444,34.18-85.405,75.635
				c4.285,17.695,23.401,30.641,39.979,24.73c23.948-8.537,45.609,1.982,72.237-23.717
				C147.048,133.624,146.647,82.849,102.176,74.407z"/>
			<path opacity="0.2" fill="#AFA1FF" d="M330.809,252.903c-32.255-33.906-96.208-27.549-112.028,11.469
				c-6.753,16.656,1.121,38.041,17.816,42.848c24.117,6.943,35.427,27.852,71.575,22.576
				C332.69,326.22,361.605,285.278,330.809,252.903z"/>
			<path opacity="0.2" fill="#AFA1FF" d="M349.286,186.429c46.628-7.508,77.821-64.375,54.364-99.805
				c-10.013-15.125-32.309-20.77-45.835-9.613c-19.539,16.115-43.397,13.604-59.629,46.705
				C287.177,146.169,304.765,193.599,349.286,186.429z"/>
			<path opacity="0.2" fill="#AFA1FF" d="M375.305,62.688c-8.604-21.295-38.941-29.935-53.203-14.98
				c-6.088,6.384-6.353,17.566,0.4,22.773c9.755,7.521,11.145,19.104,28.595,23.219C362.934,96.493,383.52,83.022,375.305,62.688z"
				/>
		</g>
		<g>
			<g>
				<path fill="#FFCAC5" d="M88.754,47.262c-2.887,0-5.235-2.349-5.235-5.235s2.349-5.235,5.235-5.235s5.235,2.348,5.235,5.235
					S91.641,47.262,88.754,47.262z M88.754,37.745c-2.361,0-4.282,1.921-4.282,4.282s1.921,4.282,4.282,4.282
					c2.36,0,4.282-1.921,4.282-4.282S91.114,37.745,88.754,37.745z"/>
			</g>
			<g>
				<path fill="#FFCAC5" d="M84.517,322.161c-2.887,0-5.234-2.35-5.234-5.236s2.348-5.234,5.234-5.234s5.235,2.348,5.235,5.234
					S87.403,322.161,84.517,322.161z M84.517,312.644c-2.361,0-4.281,1.92-4.281,4.281s1.92,4.281,4.281,4.281
					s4.282-1.92,4.282-4.281S86.878,312.644,84.517,312.644z"/>
			</g>
			<g>
				<path fill="#FFCAC5" d="M285.566,25.059c-2.887,0-5.235-2.349-5.235-5.235s2.349-5.235,5.235-5.235s5.235,2.349,5.235,5.235
					S288.453,25.059,285.566,25.059z M285.566,15.542c-2.361,0-4.282,1.92-4.282,4.282c0,2.361,1.921,4.282,4.282,4.282
					c2.36,0,4.281-1.921,4.281-4.282C289.848,17.462,287.927,15.542,285.566,15.542z"/>
			</g>
			<g>
				<path fill="#FFCAC5" d="M288.51,50.206c-1.623,0-2.943-1.321-2.943-2.944s1.32-2.944,2.943-2.944s2.943,1.321,2.943,2.944
					S290.133,50.206,288.51,50.206z M288.51,44.854c-1.327,0-2.407,1.08-2.407,2.408s1.08,2.408,2.407,2.408
					c1.328,0,2.408-1.08,2.408-2.408S289.838,44.854,288.51,44.854z"/>
			</g>
			<g>
				<path fill="#FFCAC5" d="M77.812,110.356c-1.623,0-2.943-1.32-2.943-2.943s1.32-2.943,2.943-2.943s2.943,1.32,2.943,2.943
					S79.435,110.356,77.812,110.356z M77.812,105.005c-1.328,0-2.408,1.08-2.408,2.408s1.08,2.408,2.408,2.408
					c1.327,0,2.408-1.08,2.408-2.408S79.139,105.005,77.812,105.005z"/>
			</g>
			<g>
				<path fill="#FFCAC5" d="M36.795,288.823c-1.623,0-2.943-1.32-2.943-2.943s1.32-2.943,2.943-2.943
					c1.624,0,2.944,1.32,2.944,2.943S38.419,288.823,36.795,288.823z M36.795,283.472c-1.327,0-2.407,1.08-2.407,2.408
					s1.08,2.408,2.407,2.408s2.407-1.08,2.407-2.408S38.122,283.472,36.795,283.472z"/>
			</g>
			<g>
				<path fill="#FFCAC5" d="M223.885,304.048c-1.623,0-2.943-1.32-2.943-2.943s1.32-2.943,2.943-2.943
					c1.624,0,2.944,1.32,2.944,2.943S225.509,304.048,223.885,304.048z M223.885,298.696c-1.327,0-2.407,1.08-2.407,2.408
					s1.08,2.408,2.407,2.408c1.328,0,2.408-1.08,2.408-2.408S225.213,298.696,223.885,298.696z"/>
			</g>
			<g>
				<path fill="#FFCAC5" d="M63.237,74.097c-1.623,0-2.943-1.321-2.943-2.944s1.32-2.944,2.943-2.944
					c1.624,0,2.944,1.321,2.944,2.944S64.861,74.097,63.237,74.097z M63.237,68.745c-1.327,0-2.407,1.08-2.407,2.407
					s1.08,2.407,2.407,2.407c1.328,0,2.408-1.08,2.408-2.407S64.565,68.745,63.237,68.745z"/>
			</g>
			<g>
				<path fill="#FFCAC5" d="M405.337,76.388c-2.887,0-5.234-2.349-5.234-5.236c0-2.886,2.348-5.234,5.234-5.234
					s5.235,2.349,5.235,5.234C410.572,74.039,408.224,76.388,405.337,76.388z M405.337,66.87c-2.36,0-4.281,1.921-4.281,4.281
					c0,2.361,1.921,4.283,4.281,4.283c2.361,0,4.282-1.922,4.282-4.283C409.619,68.791,407.698,66.87,405.337,66.87z"/>
			</g>
			<g>
				<path fill="#FFCAC5" d="M362.949,74.505c-1.849,0-3.353-1.504-3.353-3.353s1.504-3.353,3.353-3.353
					c1.85,0,3.354,1.504,3.354,3.353S364.799,74.505,362.949,74.505z M362.949,68.409c-1.512,0-2.742,1.23-2.742,2.743
					s1.23,2.742,2.742,2.742c1.513,0,2.742-1.229,2.742-2.742S364.462,68.409,362.949,68.409z"/>
			</g>
			<g>
				<path fill="#FFCAC5" d="M294.995,162.841c-2.886,0-5.234-2.35-5.234-5.236s2.349-5.234,5.234-5.234
					c2.888,0,5.235,2.348,5.235,5.234S297.883,162.841,294.995,162.841z M294.995,153.323c-2.36,0-4.281,1.922-4.281,4.281
					c0,2.361,1.921,4.283,4.281,4.283c2.361,0,4.282-1.922,4.282-4.283C299.277,155.245,297.356,153.323,294.995,153.323z"/>
			</g>
			<g>
				<path fill="#FFCAC5" d="M314.979,320.239c-2.887,0-5.235-2.35-5.235-5.236s2.349-5.234,5.235-5.234s5.235,2.348,5.235,5.234
					S317.866,320.239,314.979,320.239z M314.979,310.722c-2.361,0-4.282,1.92-4.282,4.281s1.921,4.283,4.282,4.283
					c2.36,0,4.281-1.922,4.281-4.283S317.34,310.722,314.979,310.722z"/>
			</g>
			<g>
				<path fill="#FFCAC5" d="M383.694,143.161c-2.886,0-5.234-2.348-5.234-5.234s2.349-5.234,5.234-5.234
					c2.888,0,5.235,2.348,5.235,5.234S386.582,143.161,383.694,143.161z M383.694,133.646c-2.36,0-4.281,1.92-4.281,4.281
					s1.921,4.281,4.281,4.281c2.361,0,4.282-1.92,4.282-4.281S386.056,133.646,383.694,133.646z"/>
			</g>
			<g>
				<path fill="#FFCAC5" d="M378.121,309.284c-2.887,0-5.235-2.35-5.235-5.236s2.349-5.234,5.235-5.234s5.235,2.348,5.235,5.234
					S381.008,309.284,378.121,309.284z M378.121,299.767c-2.361,0-4.281,1.92-4.281,4.281s1.92,4.281,4.281,4.281
					s4.282-1.92,4.282-4.281S380.482,299.767,378.121,299.767z"/>
			</g>
		</g>
	</g>
	<g>
		<g>
			<g>
				<g>
					<g>
						<path fill="#A5D8EA" d="M12.408,179.202c-11.768-2.049-10.654,6.855-8.629,9.113c2.804,3.129,4.776,2.252,6.841,5.846
							c1.264,2.203,0.457,2.406-1.769,4.258c-4.741,3.939-1.479,10.414,0.8,11.279c4.516,1.717,10.184-2.209,13.704,1.016
							c2.419,2.215-4.833,4.797-2.249,11.061c1.036,2.512,6.437,4.682,9.561,4.234c3.123-0.447,6.963-1.092,8.9-0.943
							c4.225,0.324,2.729,3.207,0.446,6.545c-1.14,1.668-4.096,4.375-1.594,7.984c1.447,2.088,5.171,3.922,7.782,3.705
							s5.548-1.398,7.65,0.066c4.651,3.24-4.869,11.686-0.262,14.396c2.199,1.293,7.818,2.984,10.286,2.949
							c2.616-0.039,6.78-1.492,9.326-0.926c2.546,0.564,10.984-1.568,12.093-4.096c1.116-2.545-5.08-5.283-5.705-6.814
							c-1.39-3.402,3.461-6.178,6.195-8.633c2.734-2.453,3.492-8.428,1.387-11.748c-4.486-7.072-10.439-0.004-12.737-4.494
							c-2.555-4.994,5.862-10.459,3.821-15.699c-1.252-3.213-3.976-6.033-8.129-5.949c-4.154,0.084-9.719,3.217-11.271,0.158
							c-1.135-2.236,0.523-4.748,1.851-6.99c1.631-2.754,2.792-5.865,1.662-8.717s-5.32-5.141-9.335-4.168
							c-2.547,0.617-4.367,2.281-6.453,3.561c-2.085,1.281-6.367,2.9-7.115,1.137c-1.171-2.758,2.067-9.02-3.862-11.713
							c-6.913-3.141-9.095,4.691-11.321,5.678C19.075,183.604,18.789,180.315,12.408,179.202z"/>
					</g>
					<path fill="#FFFFFF" d="M73.203,259.786c0,0-10.899-62.633-59.591-73.646c0,0,41.393,6.605,57.391,73.551L73.203,259.786z"/>
				</g>
				<g>
					<g>
						<path fill="#DBBDFE" d="M100.443,119.581c11.675-9.271,15.728,2.773,14.848,6.814c-1.219,5.596-3.897,5.586-4.03,11.359
							c-0.082,3.537,0.923,3.344,4.457,4.461c7.525,2.375,7.787,12.518,5.804,14.916c-3.929,4.752-12.462,2.916-14.409,9.039
							c-1.338,4.209,8.135,3.424,9.014,12.914c0.353,3.807-4.277,9.639-7.963,10.83c-3.687,1.189-8.273,2.529-10.31,3.814
							c-4.434,2.801-1.089,5.654,3.388,8.646c2.236,1.494,7.076,3.297,6.474,9.338c-0.349,3.494-3.341,7.949-6.329,9.145
							c-2.988,1.197-6.904,1.342-8.34,4.406c-3.176,6.781,12.254,12.236,8.811,18.314c-1.643,2.9-6.796,8.24-9.52,9.588
							c-2.887,1.43-8.309,1.916-10.763,4.078c-2.454,2.164-12.959,4.191-15.67,1.576c-2.729-2.633,2.436-9.641,2.214-11.959
							c-0.493-5.148-7.449-5.969-11.896-7.572c-4.449-1.604-8.818-8.834-8.478-14.283c0.726-11.602,11.433-5.898,11.29-12.955
							c-0.16-7.846-12.615-10.102-13.482-17.975c-0.531-4.826,0.781-9.982,5.381-12.221c4.599-2.236,12.55-1.359,12.438-6.16
							c-0.081-3.508-3.384-5.793-6.165-7.918c-3.418-2.611-6.531-5.945-6.983-10.24s2.782-9.598,7.755-10.617
							c3.156-0.646,6.135,0.461,9.178,0.924c3.043,0.467,8.691,0.125,8.467-2.561c-0.351-4.195-7.605-10.4-2.707-17.201
							c5.712-7.932,12.74,0.883,15.763,0.889C95.747,128.989,94.112,124.61,100.443,119.581z"/>
					</g>
					<path fill="#FFFFFF" d="M81.574,257.245c0,0-25.15-86.473,21.657-128.09c0,0-41.424,31.846-19.304,126.727L81.574,257.245z"/>
				</g>
			</g>
			<g>
				<g>
					<g>
						<path fill="#A5D8EA" d="M323.712,143.519c-10.336-6.822-12.629,4.381-11.566,7.867c1.473,4.826,3.662,4.49,4.261,9.607
							c0.367,3.135-0.471,3.086-3.267,4.508c-5.954,3.027-5.308,12.078-3.481,13.969c3.617,3.746,10.44,1.074,12.553,6.281
							c1.451,3.578-6.363,4.035-6.276,12.578c0.034,3.428,4.316,8.049,7.432,8.658c3.116,0.609,6.982,1.242,8.756,2.137
							c3.864,1.951,1.37,4.895-2.037,8.1c-1.702,1.602-5.509,3.793-4.502,9.09c0.582,3.064,3.407,6.66,5.953,7.361
							c2.546,0.699,5.761,0.352,7.194,2.9c3.173,5.643-8.983,12.371-5.652,17.355c1.59,2.379,6.258,6.5,8.601,7.365
							c2.482,0.918,6.958,0.693,9.148,2.316c2.191,1.623,10.956,2.148,12.951-0.508c2.009-2.674-2.811-8.275-2.826-10.363
							c-0.033-4.637,5.587-6.213,9.089-8.18s6.462-8.928,5.721-13.73c-1.577-10.227-9.852-3.854-10.333-10.143
							c-0.535-6.996,9.461-10.52,9.502-17.623c0.024-4.355-1.486-8.779-5.438-10.209c-3.952-1.43-10.381,0.318-10.697-3.963
							c-0.231-3.127,2.276-5.563,4.371-7.791c2.573-2.736,4.837-6.08,4.843-9.953c0.005-3.873-3.091-8.193-7.245-8.494
							c-2.636-0.191-4.979,1.154-7.427,1.939c-2.45,0.783-7.099,1.168-7.144-1.246c-0.069-3.773,5.339-10.174,0.755-15.625
							c-5.345-6.354-10.346,2.338-12.817,2.711C328.352,151.312,329.316,147.218,323.712,143.519z"/>
					</g>
					<path fill="#FFFFFF" d="M350.827,263.612c0,0,13.233-79.941-28.583-111.242c0,0,36.584,23.268,26.543,110.314L350.827,263.612z
						"/>
				</g>
				<g>
					<g>
						<path fill="#DBBDFE" d="M405.396,179.349c10.054-3.338,10.284,4.496,8.813,6.715c-2.038,3.074-3.888,2.58-5.213,5.959
							c-0.812,2.068-0.076,2.137,2.13,3.438c4.696,2.768,2.712,8.791,0.828,9.842c-3.731,2.084-9.24-0.549-11.895,2.705
							c-1.823,2.234,4.895,3.496,3.476,9.246c-0.569,2.307-5.017,4.898-7.819,4.93c-2.804,0.031-6.262-0.016-7.943,0.371
							c-3.665,0.844-1.961,3.133,0.496,5.711c1.227,1.287,4.189,3.229,2.482,6.678c-0.988,1.994-4.008,4.074-6.33,4.236
							c-2.322,0.16-5.061-0.467-6.708,1.078c-3.645,3.416,5.86,9.436,2.183,12.389c-1.756,1.41-6.46,3.619-8.631,3.918
							c-2.303,0.316-6.155-0.383-8.314,0.443c-2.158,0.828-9.856,0.113-11.173-1.922c-1.325-2.047,3.743-5.236,4.085-6.641
							c0.759-3.123-3.876-4.871-6.61-6.625c-2.733-1.754-4.21-6.809-2.812-9.955c2.979-6.703,9.166-1.396,10.573-5.578
							c1.565-4.65-6.565-8.246-5.484-13.041c0.663-2.939,2.672-5.738,6.33-6.219c3.658-0.482,8.97,1.482,9.918-1.367
							c0.692-2.08-1.104-4.027-2.573-5.785c-1.806-2.16-3.246-4.689-2.642-7.303c0.604-2.611,3.974-5.146,7.63-4.842
							c2.32,0.191,4.145,1.387,6.149,2.213c2.004,0.828,5.983,1.654,6.401,0.031c0.654-2.535-3.039-7.51,1.802-10.625
							c5.644-3.633,8.621,2.838,10.71,3.393C400.139,184.036,399.944,181.159,405.396,179.349z"/>
					</g>
					<path fill="#FFFFFF" d="M362.949,257.007c0,0,1.074-55.512,42.33-71.512c0,0-35.446,11.223-40.411,71.137L362.949,257.007z"/>
				</g>
			</g>
		</g>
		<g>
			<rect x="53.618" y="266.351" fill="#FFF2FF" width="370.882" height="22.473"/>
			<g>
				<path fill="#FBDCC3" d="M127.531,161.269c0,0,0.339-9.457,1.756-16.721c1.418-7.264,5.606-15.008,9.542-14.881
					c3.936,0.125-4.4,6.447-4.572,13.027c0,0,7.252-15.039,12.88-14.178c5.627,0.859-6.76,10.307-8.569,16.426
					c6.229-7.965,14.011-14.117,15.889-8.67c1.336,3.873-9.102,4.752-13.767,11.705c0,0,7.903-7.781,12.195-2.828
					c2.811,3.246-0.331,5.99-2.362,4.486c-2.031-1.506-9.666-1.105-8.774,5.119c0.49,3.416,6.325,1.322,8.504-0.773
					c1.908-1.836,2.468,5.311-3.307,6.152c-5.773,0.84-7.061-0.67-8.256,3.893C137.494,168.591,129.243,164.237,127.531,161.269z"/>
				<path fill="#63457C" d="M184.253,54.368c-26.077,64.981-11.366,92.78,2.763,85.497c25.602-13.197,40.861-14.463,85.367,4.412
					c9.837,4.172,21.711-18.768,13.227-37.184c-4.923-10.686-11.62-18.855-11.824-42.3
					C273.517,33.954,195.708,25.823,184.253,54.368z"/>
				<path opacity="0.2" fill="#63457C" d="M275.988,140.671c0.228-5.928-2.488-10.334-5.086-16.41
					c-2.924-6.844-5.363-14.33-6.602-21.686c-1.657-9.842,2.125-17.756,4.383-27.037c1.526-6.275,1.904-12.74,2.934-19.103
					c-12.386-23.209-74.303-27.64-86.624-3.666c6.271,4.422,7.244,12.425,4.138,19.179c-5.315,11.557-5.962,29.418-0.953,42.641
					c0.744,1.965,2.237,4.264,3.696,5.846c2.962,3.213,6.143,6.332,8.371,10.148c0.538,0.924,1.003,1.855,1.421,2.795
					c18.354-6.385,35.25-4.143,70.717,10.898c1.341,0.568,2.72,0.619,4.08,0.26C276.117,143.298,275.938,142.003,275.988,140.671z"
					/>
				<path fill="#FBDCC3" d="M237.112,114.2c-2.001-2.186-13.467-2.973-13.467-2.973s-11.466,0.787-13.467,2.973
					c-0.122,20.07,2.204,27.059-13.712,30.383c0,0,6.366,9.572,27.179,9.572s27.179-9.572,27.179-9.572
					C234.909,141.259,237.235,134.271,237.112,114.2z"/>
				<path opacity="0.5" fill="#FBDCC3" d="M209.573,134.321c3.688,3.043,7.781,5.607,14.313,5.736
					c4.362,0.086,10.708-2.693,13.643-6.682c-0.747-4.523-0.363-10.672-0.416-19.176c-2.001-2.186-13.467-2.973-13.467-2.973
					s-11.466,0.787-13.467,2.973C210.123,123.319,210.56,129.722,209.573,134.321z"/>
				<path fill="#FBDCC3" d="M259.967,82.577c-2.213,23.121-14.819,49.146-37.078,47.016c-22.258-2.131-29.698-30.074-27.484-53.195
					c2.213-23.121,17.672-32.239,35.5-30.533C248.733,47.572,262.181,59.458,259.967,82.577z"/>
				<path fill="#B38AF1" d="M197.679,144.276c0,0,22.796,20.346,51.775,0c0,0,21.646,4.82,29.142,11.727
					c17.837,16.434,29.993,50.869,27.256,81.77c-1.613,18.227-38.023,18.225-39.848,18.68c-1.825,0.457-98.74-1.139-98.74-1.139
					s1.503-7.92,1.704-19.145c0.118-6.619-4.409,0.602-12.827,2.807c-11.306,2.961-39.081-10.521-28.609-80.367
					c0,0,7.199,4.219,11.532,4.219c1.988,32.258,9.497,43.424,15.51,37.578C162.321,192.874,162.783,150.292,197.679,144.276z"/>
				<path opacity="0.2" fill="#B38AF1" d="M297.435,249.364c-3.145-4.803-8.451-10.613-13.058-16.908
					c-5.257-7.182-8.491-14.789-9.153-23.74c-0.191-2.586-0.113-5.156,0.063-7.723c-1.565-0.545-3.085-1.344-4.52-2.406
					c-5.302-3.928-6.699-8.813-6.027-13.795c-3.02,0.662-6.031,1.361-9.038,2.166c-10.4,2.787-21.105,8.584-32.076,5.305
					c-0.265-0.08-0.522-0.17-0.779-0.262c-2.058,0.221-4.122,0.244-6.18-0.021c-3.87-0.496-7.47-2.219-10.139-4.721
					c-6.754,3.934-14.326,6.783-21.783,4.201c-1.407-0.486-2.749-1.156-3.982-1.973c-0.141,0.303-0.282,0.609-0.423,0.912
					c-1.11,2.391-2.188,4.803-3.404,7.141c-0.12,0.23-0.209,0.402-0.283,0.547c-0.733,1.727-1.428,3.469-2.188,5.182
					c-2.298,5.174-5.511,10.439-10.599,13.295c-7.885,4.424-16.703,1.879-22.92-4.07c-0.828-0.791-1.565-1.654-2.294-2.535
					c-0.579-0.701-4.99-5.953-2.006-2.594c-2.419-2.725-4.764-5.479-6.893-8.445c-1.646-2.293-3.143-4.732-4.456-7.273
					c1.419,41.201,21.615,49.748,30.844,47.33c8.418-2.205,12.945-9.426,12.827-2.807c-0.201,11.225-1.704,19.145-1.704,19.145
					s96.915,1.596,98.74,1.139c1.3-0.324,20.143-0.422,31.463-7.037C297.455,249.397,297.446,249.382,297.435,249.364z"/>
				<path fill="#63457C" d="M236.257,71.528c-11.729,6.092-21.043,7.215-30.504,6.789c7.158-3.542,13.187-9.288,17.039-16.242
					c-4.565,4.316-10.145,7.572-16.168,9.435c-3.563,1.101-7.418,1.792-10.286,4.157c-4.437,3.658-5.122,10.045-5.48,15.762
					c-24.627-32.597,5.589-62.981,19.14-65.956c19.478-4.276,34.547,3.757,38.741,12.028c9.626-1.102,25.381,6.202,25.138,24.376
					c-0.292,21.745-13.29,37.538-14.961,35.233c-1.67-2.307-2.04-5.311-3.538-7.725c-4.553-7.336-9.449-15.954-9.449-24.572
					C245.928,62.323,242.721,68.171,236.257,71.528z"/>
				<g>
					<rect x="171.402" y="247.718" fill="#A0BBFB" width="108.853" height="9.23"/>
					<polygon fill="#A5C9FF" points="275.699,256.948 177.465,256.948 162.783,171.429 290.381,171.429 					"/>
					<circle fill="#A0BBFB" cx="228.492" cy="217.796" r="11.447"/>
					<path opacity="0.3" fill="#A5C9FF" d="M186.832,222.411c22.971-17.135,46.344-33.74,69.235-50.982h-47.502
						c-13.466,10.953-26.942,21.949-40.06,33.334l4.812,28.025C177.785,229.284,182.277,225.81,186.832,222.411z"/>
					<path opacity="0.3" fill="#A5C9FF" d="M285.981,197.052l2.411-14.041c-27.313,21.102-55.423,41.123-83.132,61.699
						c-5.375,3.992-10.659,8.094-15.909,12.238h19.6C234.474,236.784,259.947,216.558,285.981,197.052z"/>
				</g>
				<g>
					<path fill="#A0BBFB" d="M234.845,44.624c19.686,3.406,32.249,26.144,28.542,51.164c0.096-0.482,0.196-0.963,0.28-1.449
						c4.429-25.591-8.251-49.151-28.318-52.624c-20.068-3.473-39.927,14.458-44.354,40.047c-0.085,0.488-0.151,0.975-0.223,1.461
						C195.687,58.412,215.159,41.218,234.845,44.624z"/>
					<path fill="#A0BBFB" d="M191.291,95.972l-1.81-0.123c-2.15-0.146-3.774-2.01-3.627-4.16l1.043-15.227
						c0.146-2.151,2.01-3.775,4.16-3.628l1.81,0.124c2.15,0.146,3.774,2.01,3.628,4.16l-1.043,15.227
						C195.305,94.495,193.442,96.12,191.291,95.972z"/>
					<path fill="#A0BBFB" d="M260.937,107.782l-1.783-0.334c-2.119-0.396-3.516-2.436-3.119-4.553l2.804-15.004
						c0.396-2.119,2.435-3.516,4.554-3.119l1.783,0.332c2.118,0.396,3.516,2.436,3.119,4.555l-2.804,15.002
						C265.094,106.78,263.056,108.177,260.937,107.782z"/>
					<g>
						<path fill="#A0BBFB" d="M237.285,119.126c-0.868,0-1.766-0.033-2.691-0.105l0.093-1.199
							c18.727,1.457,24.904-13.008,24.964-13.154l1.112,0.459C260.702,105.272,254.781,119.126,237.285,119.126z"/>
					</g>
					<path fill="#A0BBFB" d="M229.091,118.962v-0.871c0-1.037,0.84-1.879,1.877-1.879h7.344c1.037,0,1.877,0.842,1.877,1.879v0.871
						c0,1.037-0.84,1.879-1.877,1.879h-7.344C229.931,120.841,229.091,119.999,229.091,118.962z"/>
				</g>
				<g>
					<g>
						<g>
							
								<path fill="none" stroke="#FB6A90" stroke-width="0.5" stroke-linecap="round" stroke-linejoin="round" stroke-miterlimit="10" d="
								M244.277,90.364c0,0-2.576-7.873-9.638-3.543"/>
							
								<ellipse transform="matrix(0.9543 0.2989 -0.2989 0.9543 39.9504 -66.4045)" fill="#FB6A90" cx="237.027" cy="97.381" rx="1.539" ry="2.375"/>
						</g>
						<g>
							
								<path fill="none" stroke="#FB6A90" stroke-width="0.5" stroke-linecap="round" stroke-linejoin="round" stroke-miterlimit="10" d="
								M208.193,86.909c0,0,4.022-7.24,10.135-1.648"/>
							
								<ellipse transform="matrix(-0.9937 0.1124 -0.1124 -0.9937 437.3032 165.6969)" fill="#FB6A90" cx="213.981" cy="95.174" rx="1.538" ry="2.375"/>
						</g>
					</g>
					
						<path fill="none" stroke="#FB6A90" stroke-width="0.5" stroke-linecap="round" stroke-linejoin="round" stroke-miterlimit="10" d="
						M224.642,98.403c0,0-3.017,6.135-2.296,7.633c0.609,1.268,1.763,1.377,1.763,1.377"/>
					<path fill="#FFFFFF" d="M217.354,109.222c0,0,6.256,6.832,13.062,1.049c0,0-1.916,8.711-7.358,8.121
						C218.865,117.938,217.876,112.19,217.354,109.222z"/>
				</g>
			</g>
			<g>
				<g>
					<path fill="#FDECD7" d="M397.677,221.854h-37.459v0.59c2.36,1.053,4.007,3.416,4.007,6.168s-1.646,5.115-4.007,6.168v0.59
						h37.459c3.732,0,6.758-3.025,6.758-6.758S401.409,221.854,397.677,221.854z"/>
					<g>
						<path fill="#FF8763" d="M397.551,236.237h-39.426v-1.732h39.426c3.338,0,6.054-2.717,6.054-6.055s-2.716-6.055-6.054-6.055
							h-39.426v-1.732h39.426c4.293,0,7.786,3.494,7.786,7.787S401.844,236.237,397.551,236.237z"/>
					</g>
					<g>
						<rect x="369.488" y="225.228" fill="#FDECD7" width="28.413" height="0.465"/>
						<rect x="368.185" y="227.743" fill="#FDECD7" width="28.413" height="0.465"/>
						<rect x="369.488" y="229.108" fill="#FDECD7" width="28.413" height="0.467"/>
						<rect x="367.672" y="231.624" fill="#FDECD7" width="28.413" height="0.465"/>
					</g>
				</g>
				<g>
					<path fill="#FDECD7" d="M396.506,237.577h-43.187v0.68c2.721,1.215,4.619,3.939,4.619,7.111s-1.898,5.896-4.619,7.111v0.68
						h43.187c4.303,0,7.791-3.488,7.791-7.791S400.809,237.577,396.506,237.577z"/>
					<g>
						<path fill="#E26FB2" d="M396.36,254.159h-45.455v-1.998h45.455c3.849,0,6.979-3.131,6.979-6.98
							c0-3.848-3.131-6.979-6.979-6.979h-45.455v-1.998h45.455c4.95,0,8.977,4.027,8.977,8.977
							C405.337,250.132,401.311,254.159,396.36,254.159z"/>
					</g>
					<g>
						<rect x="364.007" y="241.466" fill="#FDECD7" width="32.758" height="0.537"/>
						<rect x="362.503" y="244.364" fill="#FDECD7" width="32.758" height="0.537"/>
						<rect x="364.007" y="245.94" fill="#FDECD7" width="32.758" height="0.537"/>
						<rect x="361.912" y="248.841" fill="#FDECD7" width="32.758" height="0.537"/>
					</g>
				</g>
			</g>
			<g>
				<g>
					<path fill="#FD81AE" d="M328.465,228.306c-0.361,2.326-6.251,4.119-13.172,4.119c-6.92,0-12.81-1.793-13.171-4.119
						c-0.383-2.463,5.505-4.564,13.171-4.564C322.96,223.741,328.848,225.843,328.465,228.306z"/>
					<g>
						<path fill="#FD81AE" d="M325.244,249.632c-1.269-0.227-2.706-0.736-4.303-1.68l2.019-2.148
							c2.928,1.73,4.441,1.125,4.939,0.926c3.288-1.313,5.027-7.141,4.329-11.279c-0.152-0.9-0.526-1.488-1.111-1.746
							c-1.474-0.646-4.511,0.158-5.749,0.648l-1.905-2.498c0.558-0.225,5.551-2.137,9.199-0.539
							c1.217,0.533,2.751,1.668,3.151,4.045c0.761,4.506-0.905,11.832-6.011,13.869C328.703,249.669,327.17,249.978,325.244,249.632
							z"/>
					</g>
					<path fill="#FD81AE" d="M315.293,232.425c-6.92,0-12.81-1.793-13.171-4.119l4.133,26.578c0.171,1.105,4.261,2.49,9.038,2.49
						c4.778,0,8.867-1.385,9.039-2.49l4.133-26.578C328.104,230.632,322.214,232.425,315.293,232.425z"/>
					<path opacity="0.2" fill="#FD81AE" d="M322.926,243.688c-1.716,2.852-3.992,5.082-6.472,6.848
						c-1.399,0.996-7.304,4.723-9.026,5.396c1.568,0.775,4.532,1.441,7.865,1.441c4.778,0,8.867-1.385,9.039-2.49l3.759-24.172
						C326.207,235.606,325.18,239.942,322.926,243.688z"/>
					<path opacity="0.5" fill="#FFFFED" d="M311.749,198.11c2.054,1.141,4.316,4.35,2.658,8.393c-1.461,3.561-3.81,5.506-2.15,9.768
						c-2.074-2.336-4.467-5.494-2.469-9.803C311.691,202.364,312.05,199.767,311.749,198.11z"/>
					<path opacity="0.5" fill="#FFFFED" d="M315.238,203.847c-2.052,1.117-4.313,4.26-2.656,8.217
						c1.46,3.486,3.808,5.391,2.149,9.563c2.073-2.287,4.465-5.377,2.468-9.598C315.297,208.011,314.938,205.468,315.238,203.847z"
						/>
					<path opacity="0.5" fill="#FFFFED" d="M318.94,200.405c-1.675,0.912-3.521,3.477-2.168,6.707
						c1.191,2.844,3.107,4.398,1.754,7.803c1.692-1.865,3.645-4.389,2.014-7.832C318.987,203.804,318.695,201.728,318.94,200.405z"
						/>
				</g>
			</g>
			<rect x="32.033" y="254.005" fill="#E4E8FF" width="392.467" height="12.346"/>
			<g>
				<path fill="#C464B2" d="M135.885,205.294c-5.02-7.023-15.912-12.094-35.562-12.094c-19.65,0-30.543,5.07-35.562,12.094
					c-3.427,4.793-5.66,13.217-3.788,17.701c1.873,4.486,18.205-0.213,20.555-5.553c2.349-5.34-2.777-6.406-1.496-10.465
					s15.039-5.447,20.291-5.447s19.009,1.389,20.291,5.447c1.281,4.059-3.846,5.125-1.496,10.465s18.681,10.039,20.554,5.553
					C141.545,218.511,139.311,210.087,135.885,205.294z"/>
				<g opacity="0.2">
					<path fill="#C464B2" d="M100.323,197.329c-16.983,0-14.242,4.082-18.241,7.555c4.319-2.455,14.022-3.354,18.241-3.354
						s13.922,0.898,18.241,3.354C114.565,201.411,117.307,197.329,100.323,197.329z"/>
				</g>
				<g opacity="0.51">
					<path fill="#C464B2" d="M80.416,212.735c-2.138,4.588-15.212,8.703-20.106,6.926c0.055,1.24,0.266,2.379,0.664,3.334
						c1.873,4.486,18.205-0.213,20.555-5.553c1.293-2.939,0.321-4.584-0.6-6.145C80.822,211.741,80.657,212.218,80.416,212.735z"/>
					<path fill="#C464B2" d="M120.23,212.735c-0.241-0.518-0.406-0.994-0.513-1.438c-0.921,1.561-1.893,3.205-0.6,6.145
						c2.35,5.34,18.681,10.039,20.554,5.553c0.399-0.955,0.611-2.094,0.665-3.334C135.442,221.438,122.368,217.323,120.23,212.735z"
						/>
				</g>
				<path fill="#C464B2" d="M125.581,228.341c-4.381-3.359-11.949-13.969-11.949-22.441c0-1.363,0-5.453,0-5.453
					c0-1.506-1.261-2.719-2.785-2.639c-1.43,0.074-2.501,1.357-2.501,2.789v1.916c0,1.627-1.319,2.947-2.946,2.947h-5.076h-5.076
					c-1.627,0-2.946-1.32-2.946-2.947v-1.916c0-1.432-1.071-2.715-2.501-2.789c-1.525-0.08-2.785,1.133-2.785,2.639
					c0,0,0,4.09,0,5.453c0,8.473-7.568,19.082-11.949,22.441c-8.348,6.398-8.965,25.664-8.965,25.664h34.223h34.224
					C134.547,254.005,133.929,234.739,125.581,228.341z"/>
				<path opacity="0.2" fill="#C464B2" d="M122.02,249.007c-8.845-0.803-18.2-1.68-26.581-4.807
					c-8.357-3.117-16.037-8.143-21.572-14.791c-7.203,7.23-7.766,24.596-7.766,24.596h68.445c0,0-0.049-1.537-0.308-3.887
					C130.16,249.757,126.084,249.376,122.02,249.007z"/>
				<g>
					<circle opacity="0.4" fill="#C464B2" cx="100.323" cy="228.206" r="15.218"/>
					<path fill="#C464B2" d="M102.623,217.351c0,1.271-1.03,2.301-2.3,2.301s-2.3-1.029-2.3-2.301c0-1.27,1.03-2.299,2.3-2.299
						S102.623,216.081,102.623,217.351z M100.323,236.458c-1.27,0-2.3,1.029-2.3,2.299c0,1.271,1.03,2.301,2.3,2.301
						s2.3-1.029,2.3-2.301C102.623,237.487,101.593,236.458,100.323,236.458z M93.821,216.794c-1.1,0.635-1.477,2.041-0.842,3.141
						c0.636,1.1,2.042,1.477,3.143,0.842c1.1-0.635,1.477-2.041,0.841-3.141C96.328,216.536,94.922,216.159,93.821,216.794z
						 M104.524,235.333c-1.1,0.635-1.477,2.041-0.842,3.141c0.636,1.1,2.042,1.477,3.143,0.842c1.1-0.635,1.477-2.041,0.842-3.141
						C107.031,235.073,105.625,234.698,104.524,235.333z M89.063,221.554c-0.636,1.1-0.259,2.506,0.842,3.141
						c1.1,0.635,2.506,0.258,3.142-0.842c0.635-1.1,0.258-2.506-0.842-3.141S89.697,220.454,89.063,221.554z M107.601,232.257
						c-0.635,1.1-0.258,2.506,0.842,3.141s2.506,0.258,3.142-0.842s0.259-2.506-0.842-3.141
						C109.643,230.78,108.235,231.157,107.601,232.257z M87.32,228.054c0,1.271,1.03,2.301,2.3,2.301s2.299-1.029,2.299-2.301
						c0-1.27-1.029-2.299-2.299-2.299S87.32,226.784,87.32,228.054z M108.727,228.054c0,1.271,1.03,2.301,2.3,2.301
						s2.3-1.029,2.3-2.301c0-1.27-1.03-2.299-2.3-2.299S108.727,226.784,108.727,228.054z M89.063,234.556
						c0.635,1.1,2.042,1.477,3.142,0.842s1.477-2.041,0.842-3.141c-0.636-1.1-2.042-1.477-3.142-0.842
						C88.804,232.05,88.427,233.456,89.063,234.556z M107.601,223.853c0.635,1.1,2.042,1.477,3.142,0.842
						c1.101-0.635,1.478-2.041,0.842-3.141s-2.042-1.477-3.142-0.842S106.966,222.753,107.601,223.853z M93.821,239.315
						c1.101,0.635,2.507,0.258,3.142-0.842c0.636-1.1,0.259-2.506-0.841-3.141c-1.101-0.635-2.507-0.26-3.143,0.842
						C92.345,237.274,92.722,238.681,93.821,239.315z M104.524,220.776c1.101,0.635,2.507,0.258,3.143-0.842
						c0.635-1.1,0.258-2.506-0.842-3.141c-1.101-0.635-2.507-0.258-3.143,0.842C103.048,218.735,103.425,220.142,104.524,220.776z"
						/>
					<circle opacity="0.4" fill="#C464B2" cx="100.323" cy="228.206" r="5.504"/>
				</g>
			</g>
		</g>
		<g>
			<g>
				<g>
					<path fill="#FFDFC5" d="M145.267,115.86l-9.762-1.672c-2.31,2.078-4.938,3.73-7.822,4.912
						c-13.805,5.664-29.643-0.959-35.306-14.764c-5.663-13.803,0.96-29.641,14.764-35.305s29.643,0.959,35.306,14.764
						c2.85,6.945,2.675,14.779-0.463,21.594l4.522,8.779c0.203,0.395,0.166,0.871-0.097,1.229c-0.13,0.178-0.305,0.311-0.5,0.393
						C145.71,115.87,145.488,115.897,145.267,115.86z M94.544,103.448c5.174,12.609,19.641,18.66,32.25,13.486
						c2.801-1.148,5.337-2.781,7.541-4.852c0.269-0.25,0.637-0.361,0.999-0.299l8.015,1.371l-3.712-7.209
						c-0.17-0.328-0.174-0.717-0.012-1.049c3.087-6.336,3.325-13.703,0.654-20.213c-5.173-12.609-19.64-18.659-32.249-13.485
						C95.42,76.372,89.37,90.839,94.544,103.448z"/>
				</g>
				<path fill="#FFDFC5" d="M109.18,80.872c1.862,2,2.783,3.215,3.896,4.467c0.827,0.93-1.998,3.23-2.314,4.531
					c-0.943,3.869,3.251,7.453,3.251,7.453s4.114,3.676,7.822,2.223c1.247-0.488,3.147-3.596,4.181-2.9
					c1.389,0.934,2.717,1.682,4.948,3.26c0.924,0.652-1.364,4.512-3.142,6.111c-2.996,2.697-9.541,1.699-17.11-4.916
					c-7.569-6.613-9.437-12.965-7.167-16.295C104.892,82.829,108.409,80.044,109.18,80.872z"/>
			</g>
			<g>
				<g>
					<path fill="#85DAD4" d="M296.67,116.679c-0.354-0.27-0.522-0.717-0.437-1.152l1.905-9.779
						c-4.956-5.711-7.334-13.248-6.532-20.771c1.594-14.955,15.059-25.824,30.012-24.23c14.954,1.593,25.825,15.057,24.23,30.011
						c-1.594,14.955-15.058,25.824-30.012,24.23c-3.127-0.334-6.139-1.191-8.958-2.555l-8.984,4.371
						c-0.201,0.098-0.421,0.135-0.636,0.111C297.048,116.892,296.844,116.813,296.67,116.679z M307.416,110.085
						c2.715,1.385,5.632,2.25,8.669,2.574c13.67,1.457,25.978-8.48,27.436-22.15c1.457-13.67-8.479-25.978-22.15-27.435
						c-13.67-1.457-25.978,8.479-27.435,22.149c-0.752,7.057,1.556,14.125,6.33,19.393c0.248,0.273,0.354,0.648,0.282,1.01
						l-1.567,8.045l7.391-3.596c0.2-0.098,0.42-0.135,0.637-0.111C307.147,109.979,307.286,110.021,307.416,110.085z"/>
				</g>
				<g>
					<path fill="#85DAD4" d="M319.563,95.019l-6.51-1.227l0.855-8.025c0.177,0.129,0.585,0.287,1.22,0.479
						c0.636,0.191,1.196,0.313,1.683,0.363c1.107,0.119,2.092-0.068,2.951-0.566c0.858-0.496,1.338-1.215,1.438-2.162
						c0.096-0.893-0.115-1.672-0.631-2.344c-0.517-0.668-1.315-1.061-2.396-1.176c-1.054-0.113-1.898,0.119-2.533,0.693
						c-0.636,0.574-1.097,1.311-1.384,2.209l-4.769-2.559c0.299-1.525,0.977-2.881,2.032-4.066c1.055-1.186,2.353-2.079,3.893-2.68
						s3.146-0.813,4.822-0.634c1.918,0.204,3.581,0.888,4.987,2.048c1.407,1.162,2.442,2.598,3.108,4.309
						c0.664,1.709,0.901,3.457,0.712,5.24c-0.208,1.945-0.87,3.541-1.986,4.789c-1.117,1.248-2.372,2.117-3.764,2.611
						s-2.585,0.676-3.583,0.541L319.563,95.019z M312.293,103.241c-0.718-0.965-1.013-2.041-0.886-3.23
						c0.129-1.215,0.678-2.195,1.646-2.939c0.967-0.744,2.032-1.055,3.193-0.93c1.081,0.115,1.967,0.592,2.655,1.43
						c0.69,0.84,0.967,1.895,0.832,3.164c-0.136,1.27-0.636,2.311-1.501,3.119c-0.865,0.811-1.893,1.15-3.081,1.023
						C313.962,104.751,313.01,104.206,312.293,103.241z"/>
				</g>
			</g>
			<g>
				<g>
					<path fill="#D2CAFF" d="M168.267,62.903c-0.214-0.031-0.419-0.12-0.59-0.265l-7.639-6.439
						c-3.068,0.628-6.198,0.722-9.312,0.279c-14.889-2.121-25.276-15.959-23.155-30.849c2.12-14.889,15.96-25.276,30.849-23.156
						c14.888,2.121,25.276,15.959,23.155,30.849c-1.067,7.492-5.219,14.215-11.424,18.537l-0.551,9.948
						c-0.023,0.443-0.297,0.835-0.705,1.011C168.693,62.905,168.476,62.933,168.267,62.903z M160.519,53.774
						c0.216,0.031,0.42,0.121,0.59,0.265l6.283,5.297l0.453-8.183c0.021-0.368,0.214-0.706,0.521-0.91
						c5.92-3.936,9.89-10.223,10.891-17.25c1.938-13.61-7.558-26.261-21.168-28.2c-13.61-1.939-26.261,7.557-28.199,21.167
						c-1.939,13.61,7.557,26.261,21.167,28.2c3.024,0.431,6.064,0.307,9.038-0.369C160.235,53.76,160.38,53.754,160.519,53.774z"/>
				</g>
				<g>
					<polygon fill="#D2CAFF" points="153.98,33.644 142.485,21.48 140.219,37.394 166.146,41.087 168.413,25.174 					"/>
					<polygon fill="#D2CAFF" points="166.165,22.795 145.309,19.824 154.555,29.608 					"/>
				</g>
			</g>
		</g>
	</g>
</g>
</svg>
